<?xml version="1.0" standalone="no"?>
<!DOCTYPE svg PUBLIC "-//W3C//DTD SVG 1.1//EN" "http://www.w3.org/Graphics/SVG/1.1/DTD/svg11.dtd" >
<!--
2013-9-30: Created.
-->
<svg>
<metadata>
Created by iconfont
</metadata>
<defs>

<font id="datav-font" horiz-adv-x="1024" >
  <font-face
    font-family="datav-font"
    font-weight="500"
    font-stretch="normal"
    units-per-em="1024"
    ascent="896"
    descent="-128"
  />
    <missing-glyph />
    
    <glyph glyph-name="save-exit" unicode="&#58962;" d="M840.744 192L760.08 282.744l47.84 42.512L954.816 160l-146.896-165.256-47.84 42.512L840.744 128H576v64h264.744zM352 448h-64V704H192v-640h320v-64H128V768h576v-2.984l1.072 1.072L895.168 576H896v-0.832l1.408-1.408-1.408-1.408V384h-64V548.656l-96 96V448H352z m0 64h320V704H352v-192z"  horiz-adv-x="1024" />

    
    <glyph glyph-name="preview" unicode="&#59061;" d="M830.128 64v-64h-640v64h640zM960 768v-640H64V768h896z m-72-64H128v-512h760V704zM768 480v-64H256v64h512z"  horiz-adv-x="1024" />

    
    <glyph glyph-name="view" unicode="&#59062;" d="M773.272 768v-292.16a265.032 265.032 0 0 1-59.104 29.664v26.08H123.096l0.008-413.752h58.88a265.032 265.032 0 0 1 29.656-59.104H64V768h709.272z m-59.104-59.104H123.104v-118.216H714.16V708.896zM184 212.736C312.024 390.92 440.048 480 568.08 480c128.016 0 256.04-89.088 384.064-267.264-128.024-149.496-256.048-224.256-384.072-224.256S312.024 63.23199999999997 184 212.736z m384.08-175.104c104.048 0 211.28 58.16 321.688 177.92-111.408 145.16-218.984 215.296-321.696 215.296-102.712 0-210.28-70.136-321.696-215.296 110.424-119.76 217.64-177.92 321.696-177.92z m3.424 77.24c-62.504 0-113.168 51.872-113.168 115.856 0 63.992 50.664 115.856 113.168 115.856 62.496 0 113.16-51.864 113.16-115.856 0-63.984-50.664-115.856-113.16-115.856z"  horiz-adv-x="1024" />

    
    <glyph glyph-name="not-view" unicode="&#59063;" d="M778.6 768v-294.352a267.024 267.024 0 0 1-59.552 29.88v26.272H123.544v-416.848h59.328a267.024 267.024 0 0 1 29.88-59.552H64V768h714.6z m-59.552-59.552H123.552l-0.008-119.096H719.04l0.008 119.096zM746.936 407.328l-34.392-34.616C664.8 402.36 617.92 416.96 572 416.96c-103.968 0-212.856-74.848-325.64-229.784 50.48-57.736 100.32-102.064 149.488-133.304l-38.4-38.664C299.616 54.511999999999944 241.808 109.71199999999999 184 180.79999999999995 313.336 370.34400000000005 442.664 465.12 572 465.12c58.312 0 116.624-19.264 174.936-57.792z m81.256-66.16C872.128 298.64 916.064 245.20000000000005 960 180.79999999999995c-129.336-159.04-258.664-238.56-388-238.56-39.36 0-78.728 7.36-118.088 22.104l43.04 43.344c25.2-6.952 50.208-10.4 75.048-10.4 105.328 0 213.872 62.056 325.64 189.88-34.664 47.624-68.968 87.688-102.88 120.336l33.432 33.656zM562.816 74l139.568 140.512c0.832-5.784 1.256-11.696 1.256-17.696 0-68.4-55.84-123.84-124.712-123.84-5.456 0-10.832 0.344-16.112 1.024z m-89.864 57.504a122.616 122.616 0 0 0-18.736 65.304c0 68.392 55.84 123.84 124.72 123.84a124.8 124.8 0 0 0 64.296-17.712L472.96 131.49599999999998zM847.912 472l36.736-36.992-523.6-527.152-36.744 36.992L847.904 472z"  horiz-adv-x="1024" />

    
    <glyph glyph-name="chengshishengchengqi3x" unicode="&#59046;" d="M576 64V704H448v-640h128z m64 0h64V576h-64v-512z m0 576h128v-576h128v-64H128v64h128V512h128V768h256v-128z m-256-576V440h-64v-376h64z"  horiz-adv-x="1024" />

    
    <glyph glyph-name="fuzhizhongxindian" unicode="&#59047;" d="M958.928 415.232l-59.592-4.16c-14.96 213.904-200.488 375.192-414.4 360.232-213.92-14.96-375.2-200.496-360.24-414.4 14.96-213.92 200.496-375.2 414.4-360.24l4.176-59.592c-246.824-17.256-460.904 168.84-478.16 415.656C47.84 599.552 233.944 813.632 480.768 830.888c246.824 17.264 460.896-168.832 478.16-415.656zM768 160V288h64v-128h128v-64h-128v-128h-64v128H640v64h128zM512 256c-70.696 0-128 57.304-128 128s57.304 128 128 128 128-57.304 128-128-57.304-128-128-128z"  horiz-adv-x="1024" />

    
    <glyph glyph-name="wodefenzu" unicode="&#59048;" d="M192 704v-192h192V704H192z m448 0v-192h192V704H640z m0-448v-192h192V256H640zM128 768h320v-320H128V768z m448 0h320v-320H576V768z m0-448h320v-320H576V320z m-448 0h320v-320H128V320z m64-64v-192h192V256H192z"  horiz-adv-x="1024" />

    
    <glyph glyph-name="shujufuwu3x" unicode="&#59055;" d="M768 704h192v-704H64V704h512v-64h64v64h64v-64h64v64z m-640-64v-568h768V640H128z m256-179.264L280.72 360 384 259.264 339.64 216 192 360l147.64 144L384 460.736z m256 0L684.36 504 832 360 684.36 216 640 259.264 743.28 360 640 460.736z m-51.712 89.544l55.424-32-192-332.56-55.424 32 192 332.56z"  horiz-adv-x="1024" />

    
    <glyph glyph-name="bianliangguanlifuzhi" unicode="&#59044;" d="M128 768h768v-768H128V768z m64-64v-640h640V704H192zM550.272 271.76L776.56 454.176 736.4 504 550.672 354.296 414.48 466.312 248 327.672l40.96-49.176 125.776 104.744z"  horiz-adv-x="1024" />

    
    <glyph glyph-name="huitiaoID" unicode="&#59045;" d="M317.88 321.32L417.92 494.576C377.96 523.664 352 570.8 352 624c0 88.368 71.632 160 160 160s160-71.632 160-160c0-55.304-28.056-104.056-70.72-132.792l97.904-169.568A160.064 160.064 0 0 0 744 328c88.368 0 160-71.632 160-160s-71.632-160-160-160c-71.64 0-132.288 47.088-152.672 112H424.672c-20.384-64.912-81.032-112-152.672-112-88.368 0-160 71.632-160 160s71.632 160 160 160c15.944 0 31.352-2.336 45.88-6.68z m56.416-30.288A159.72 159.72 0 0 0 431.2 184H584.8a159.736 159.736 0 0 0 57.76 107.736L541.528 466.72c-9.576-1.784-19.44-2.72-29.528-2.72-12.216 0-24.12 1.368-35.552 3.968l-102.16-176.936zM512 528c53.016 0 96 42.984 96 96s-42.984 96-96 96-96-42.984-96-96 42.984-96 96-96z m232-456c53.016 0 96 42.984 96 96s-42.984 96-96 96-96-42.984-96-96 42.984-96 96-96z m-472 0c53.016 0 96 42.984 96 96s-42.984 96-96 96-96-42.984-96-96 42.984-96 96-96z"  horiz-adv-x="1024" />

    
    <glyph glyph-name="pull-down" unicode="&#59331;" d="M673.496 395.376l-39.368 39.376L516 387.376l-118.128 47.376-39.376-39.376L516 277.24800000000005zM512-40c229.752 0 416 186.248 416 416S741.752 792 512 792 96 605.752 96 376s186.248-416 416-416z m4 56C319.384 16 160 175.38400000000001 160 372S319.384 728 516 728 872 568.616 872 372 712.616 16 516 16z"  horiz-adv-x="1024" />

    
    <glyph glyph-name="beauttification" unicode="&#59330;" d="M470.96 300.91200000000003l-251.032 20.584 152.504 197.4-60.64 244.056 238.136-85.36 213.384 129.68-5.624-249.632 192.992-163.552-241.68-69.512-94.704-230.768L470.96 300.91200000000003z m35.4 61.312L599.84 227.15200000000004l61.704 150.368 156.56 45.032-125.088 106 3.68 163.344L557.08 607.04 402.72 662.3679999999999l39.28-158.096-99.36-128.624 163.712-13.424zM450.288 329.11199999999997l62.352-36-184-318.696-62.352 36z"  horiz-adv-x="1024" />

    
    <glyph glyph-name="migrate" unicode="&#59039;" d="M575.784 320V448h64v-128H768v-66.08H639.784V128h-64V253.91999999999996H448V320h127.784zM320 640h576v-704H320V640z m64-64v-576h448V576H384z m320 128h-64v64H192v-640h64v-64H128V832h576v-128z"  horiz-adv-x="1024" />

    
    <glyph glyph-name="mobile" unicode="&#59043;" d="M448 128h128v-64H448zM224 256h576v-64H224zM192 832h640v-896H192V832z m64-64v-768h512V768H256z"  horiz-adv-x="1024" />

    
    <glyph glyph-name="text-align-right" unicode="&#59051;" d="M824 672h-624v-54.848h624V672z m0-336h-624v-54.848h624V336z m0 168h-432v-54.848h432v54.848z m0-336h-432v-54.848h432v54.848z"  horiz-adv-x="1024" />

    
    <glyph glyph-name="text-align-center" unicode="&#59052;" d="M824 672H165.696v-54.848h658.304V672z m0-329.152H145.152V288h678.848v54.848zM714.304 507.52H282.24v-54.912h432V507.52z m0-329.152H282.24v-54.848h432v54.848z"  horiz-adv-x="1024" />

    
    <glyph glyph-name="text-align-left" unicode="&#59053;" d="M200 672h624v-54.848h-624V672z m0-336h624v-54.848h-624V336z m0 168h432v-54.848h-432v54.848z m0-336h432v-54.848h-432v54.848z"  horiz-adv-x="1024" />

    
    <glyph glyph-name="text-align-default" unicode="&#59054;" d="M455.36 224.64a208.256 208.256 0 0 0 61.312 143.424 208.64 208.64 0 0 0 148.288 61.44 208.064 208.064 0 0 0 148.224-61.44c6.016-6.016 11.648-12.416 16.896-19.2l-36.672-28.608a4.864 4.864 0 0 1 1.856-8.576l107.072-26.24a4.864 4.864 0 0 1 6.016 4.736l0.512 110.272c0 4.096-4.736 6.4-7.872 3.84l-34.368-26.88a256 256 0 0 1-457.6-152.576c0-2.752 2.176-4.992 4.928-4.992h36.544a4.864 4.864 0 0 1 4.864 4.736z m460.8-4.8h-36.544a4.864 4.864 0 0 1-4.928-4.736 208.256 208.256 0 0 0-61.312-143.488 208.704 208.704 0 0 0-148.288-61.44 208.64 208.64 0 0 0-165.12 80.576l36.672 28.608A4.864 4.864 0 0 1 534.784 128l-107.072 26.24a4.864 4.864 0 0 1-6.08-4.736l-0.384-110.336c0-4.096 4.672-6.4 7.872-3.84l34.368 26.88a256 256 0 0 1 457.6 152.64 4.864 4.864 0 0 1-4.928 4.992zM338.176 336a349.632 349.632 0 0 1-13.568-54.848H200V336h138.24z m120.448 168c-21.056-16.064-40.32-34.56-57.216-54.848H200v54.848h258.624z m-134.208-336c3.008-18.816 7.552-37.12 13.44-54.848H199.936v54.848h124.416zM200 672h624v-54.848h-624V672z"  horiz-adv-x="1024" />

    
    <glyph glyph-name="column" unicode="&#59049;" d="M810.666667 725.333333v-682.666666h-213.333334V725.333333zM426.666667 725.333333v-682.666666H213.333333V725.333333h213.333334zM384 682.666667H256v-597.333334h128V682.666667z"  horiz-adv-x="1024" />

    
    <glyph glyph-name="row" unicode="&#59050;" d="M128 682.666667h768v-213.333334H128zM128 298.66666699999996h768v-213.333334H128v213.333334z m42.666667-42.666667v-128h682.666666v128H170.666667z"  horiz-adv-x="1024" />

    
    <glyph glyph-name="position" unicode="&#59042;" d="M716.032 258.85866699999997a306.432 306.432 0 1 1-429.098667 0L232.874667 204.79999999999995a378.325333 378.325333 0 1 0 540.458666 0L503.04-65.40800000000002 232.874667 204.79999999999995l54.058666 54.058667L503.04 42.66666699999996l212.949333 216.192zM502.570667 490.709333m-139.434667 0a139.434667 139.434667 0 1 1 278.869333 0 139.434667 139.434667 0 1 1-278.869333 0Z"  horiz-adv-x="1024" />

    
    <glyph glyph-name="map-choose-rect" unicode="&#59041;" d="M156.416 738.56h82.986667V810.666667H85.333333v-180.266667h71.082667zM886.954667 810.666667h-102.4v-72.106667h84.48v-108.16H938.666667V810.666667zM286.805333 810.666667H405.333333v-72.106667H286.805333zM458.666667 810.666667h106.666666v-72.106667h-106.666666zM618.666667 810.666667H725.333333v-72.106667h-106.666666zM501.248 360.576l-0.768-210.944h-63.061333V474.154667h308.138666v-63.445334l-202.666666-0.384 378.496-383.829333-45.354667-45.994667-374.784 380.074667zM137.045333-42.66666699999996h102.4v71.808H156.416v108.458667H85.333333V-42.66666699999996zM286.805333 29.440000000000055H405.333333V-42.66666699999996H286.805333zM476.458667 29.440000000000055h106.666666V-42.66666699999996h-106.666666zM156.458667 594.346667v-108.202667H85.333333V594.346667zM938.666667 582.314667v-108.16h-71.125334V582.314667zM156.458667 438.101333v-108.202666H85.333333v108.202666zM938.666667 426.069333v-108.16h-71.125334v108.16zM156.458667 281.856v-108.202667H85.333333v108.202667z"  horiz-adv-x="1024" />

    
    <glyph glyph-name="citylite-immersion" unicode="&#59040;" d="M832.016 435.152C911.184 388.984 960 325.76 960 256c0-141.384-200.576-256-448-256S64 114.61599999999999 64 256c0 69.752 48.816 132.984 128 179.16v-79.392c-42.744-33.032-64-68.832-64-99.768 0-37.84 31.8-82.96 95.84-121.376C297.92 90.15999999999997 401.04 64 512 64c110.96 0 214.08 26.168 288.16 70.624C864.2 173.03999999999996 896 218.15999999999997 896 256c0 30.936-21.256 66.736-64 99.76l0.016 79.392zM512 764.96l253.704-146.48v-292.944L512 179.03999999999996l-253.704 146.48V618.472L512 764.96z m189.688-201.96L541.224 468.88v-199.04L701.696 362.48V562.992z m-379.4-2.304l0.008-198.208 154.928-89.44V468.6l-154.936 92.08zM512 691.04l-147.192-84.96L507.48 521.28 655.6 608.144 512 691.04z m256 105.744v-105.336L640 768l128 28.8z"  horiz-adv-x="1024" />

    
    <glyph glyph-name="empty-error-node" unicode="&#58945;" d="M384 768h256v-64H384zM480 512h64v-256h-64zM480 192h64v-64h-64zM128 640h768v-64H128zM224 512h64v-512h-64zM256 64h512v-64H256zM736 512h64v-512h-64z"  horiz-adv-x="1024" />

    
    <glyph glyph-name="empty-canvas" unicode="&#59036;" d="M384 0H128V768h768v-192h-64V696H192v-631.496l192-0.152V0zM128 576l256-0.48V512H128.192zM576 512h192v-64H576zM576 320h64v-256h-64zM704 320h64v-256h-64zM384 448h576v-64H384zM448 384h64v-448h-64zM512 0h384v-64H512zM832 384h64v-448h-64z"  horiz-adv-x="1024" />

    
    <glyph glyph-name="editor-canvas" unicode="&#59037;" d="M384 0H128V768h768v-192h-64V696H192v-631.496l192-0.152V0zM128 576l448-0.48V512H128.336zM816.928 529.616l169.704-169.704-346.384-346.384-209.44-39.728 39.736 209.432 346.384 346.384zM529.744 151.928l-18.536-97.744 97.736 18.544 287.184 287.184-79.2 79.2L529.744 151.91999999999996zM550.224 240.84000000000003l147.08-147.08-45.256-45.256L504.96 195.58399999999995z"  horiz-adv-x="1024" />

    
    <glyph glyph-name="logic-node-layer" unicode="&#59038;" d="M192 0V632h64v-632zM192 448h128v-64H192zM192 192h128v-64H192zM320 512h64v-192h-64zM320 256h64v-192h-64zM320 512h576v-64H320zM320 256h576v-64H320zM320 384h576v-64H320zM320 128h576v-64H320zM832 496h64v-176h-64zM832 240h64v-176h-64zM128 768h64v-192h-64zM128 768h576v-64H128zM128 640h576v-64H128zM640 752h64v-176h-64z"  horiz-adv-x="1024" />

    
    <glyph glyph-name="camera" unicode="&#59102;" d="M192 608h640v-488H192V608z m53.336-54.224v-379.552h533.328V553.7760000000001H245.336zM320 712h384v-160H320V712z m52.96-53.336v-53.328h278.08v53.328H372.96zM504 240c70.696 0 128 57.304 128 128s-57.304 128-128 128-128-57.304-128-128 57.304-128 128-128z m0 53.896a74.104 74.104 0 1 0 0 148.208 74.104 74.104 0 0 0 0-148.208z"  horiz-adv-x="1024" />

    
    <glyph glyph-name="play" unicode="&#59103;" d="M708 376l-320 164v-328zM512 0c207.656 0 376 168.344 376 376S719.656 752 512 752 136 583.656 136 376s168.344-376 376-376z m0 56c-176.728 0-320 143.272-320 320s143.272 320 320 320 320-143.272 320-320-143.272-320-320-320z"  horiz-adv-x="1024" />

    
    <glyph glyph-name="map-choose-circle" unicode="&#59105;" d="M701.858133 401.066667l-0.008533-164.5312H870.4v-60.407467l-168.5504 0.008533 0.008533-150.536533h-58.538666l-0.008534 150.536533H494.933333v60.398934h148.3776V401.066667h58.5472zM846.327467 507.0592l-65.365334-19.6864a297.617067 297.617067 0 0 1-51.063466 98.090667l53.674666 42.1888a365.892267 365.892267 0 0 0 62.754134-120.593067z m-84.9408 146.286933l-49.5616-46.941866a299.690667 299.690667 0 0 1-89.6512 64.964266l29.124266 61.738667a367.957333 367.957333 0 0 0 110.08-79.761067zM494.933333 768a366.250667 366.250667 0 0 0 125.0304-21.845333l-23.261866-64.187734a297.873067 297.873067 0 0 1-109.4912 17.664l-1.732267 68.2496C488.618667 767.965867 491.776 768 494.933333 768z m-43.52-2.56l8.0128-67.7888a296.192 296.192 0 0 1-105.403733-33.169067l-32.264533 60.16A364.475733 364.475733 0 0 0 451.413333 765.448533zM292.010667 706.816l37.802666-56.832a300.6976 300.6976 0 0 1-79.351466-77.303467l-55.825067 39.278934a368.964267 368.964267 0 0 0 97.365333 94.865066zM176.2304 583.04l59.246933-33.902933a296.209067 296.209067 0 0 1-36.061866-104.448l-67.549867 9.864533a364.4928 364.4928 0 0 0 44.3648 128.4864zM128 401.066667c0 6.7072 0.1792 13.380267 0.5376 20.002133l68.164267-3.669333A304.452267 304.452267 0 0 1 196.266667 401.152c0-32.256 5.0688-63.6672 14.890666-93.533867l-64.8448-21.341866A366.600533 366.600533 0 0 0 128 401.066667z m30.5408-146.781867l62.549333 27.332267a299.323733 299.323733 0 0 1 62.3616-91.4432l-48.341333-48.213334A367.598933 367.598933 0 0 0 158.549333 254.29333299999996z m101.9136-135.4752l43.656533 52.488533a298.018133 298.018133 0 0 1 96.648534-53.76l-21.504-64.7936a366.293333 366.293333 0 0 0-118.801067 66.065067z"  horiz-adv-x="1024" />

    
    <glyph glyph-name="stop" unicode="&#59106;" d="M384 512h256v-264H384zM512 0c212.08 0 384 171.92 384 384S724.08 768 512 768 128 596.0799999999999 128 384s171.92-384 384-384z m0 56c-181.152 0-328 146.848-328 328s146.848 328 328 328 328-146.848 328-328-146.848-328-328-328z"  horiz-adv-x="1024" />

    
    <glyph glyph-name="pause" unicode="&#59107;" d="M384 536h96v-312H384zM544 536h96v-312H544zM512 0c212.08 0 384 171.92 384 384S724.08 768 512 768 128 596.0799999999999 128 384s171.92-384 384-384z m0 56c-181.152 0-328 146.848-328 328s146.848 328 328 328 328-146.848 328-328-146.848-328-328-328z"  horiz-adv-x="1024" />

    
    <glyph glyph-name="published" unicode="&#59022;" d="M379.259259 784.118519l202.903704-202.903704 55.940741 54.992592L434.251852 839.111111 380.207407 893.155556l-54.992592-54.992593L56.888889 569.837037 1.896296 514.8444440000001l256.948148-256.948148 54.992593 54.992593-202.903704 202.903704zM348.112593 493.861926l54.973629 54.97363 257.450667-257.450667-54.97363-54.97363zM969.007407 304.355556L766.103704 507.259259 711.111111 452.266667l202.903704-202.903704-268.325926-268.325926-202.903704 202.903704-54.992592-54.992593 202.903703-202.903704L644.740741-128l54.992592 54.992593 268.325926 268.325926 55.940741 54.992592z"  horiz-adv-x="1024" />

    
    <glyph glyph-name="unPublished" unicode="&#59035;" d="M258.844444 257.896296l54.992593 54.992593-202.903704 202.903704L379.259259 784.118519l202.903704-202.903704 55.940741 54.992592L434.251852 839.111111 380.207407 893.155556l-54.992592-54.992593L56.888889 569.837037 1.896296 514.8444440000001l54.044445-54.044444zM969.007407 304.355556L766.103704 507.259259 711.111111 452.266667l202.903704-202.903704-268.325926-268.325926-202.903704 202.903704-54.992592-54.992593 202.903703-202.903704L644.740741-128l54.992592 54.992593 268.325926 268.325926 55.940741 54.992592zM95.93363 24.803555999999958l769.659259 769.659259 50.280296-50.280296-769.659259-769.65926z"  horiz-adv-x="1024" />

    
    <glyph glyph-name="editor-canvas1" unicode="&#59020;" d="M640 768v-64H192v-640h640V512h64v-512H128V768h512zM256 192v64h512v-64H256z m619.432 592.512l41.136-49.024-448-376-41.136 49.024 448 376z"  horiz-adv-x="1024" />

    
    <glyph glyph-name="logic-node-layer1" unicode="&#59019;" d="M384 768v-768H128V768h256z m512 0v-768H640V768h256z m-576-64H192v-640h128V704z m512 0H704v-640h128V704z m-256-64v-512H448V640h128z"  horiz-adv-x="1024" />

    
    <glyph glyph-name="import-node-layer" unicode="&#59021;" d="M608 824c53.016 0 96-42.984 96-96s-42.984-96-96-96c-44.728 0-82.32 30.592-92.976 72H192v-194.424h640V704h64v-256H544v-389.776l154.048 149.544 48.136-43.848-233.96-227.12-246.04 227.024 46.928 44.984L480 54.823999999999955V448H128V768h392.704c15.168 33.048 48.56 56 87.296 56z m0-64a32 32 0 1 1 0-64 32 32 0 0 1 0 64z"  horiz-adv-x="1024" />

    
    <glyph glyph-name="third-subscript" unicode="&#59013;" d="M146.285714 859.428571v-111.104H1.462857zM1.462857 748.324571h1173.211429c92.891429-5.339429 164.571429-53.613714 215.04-144.896 50.468571-91.282286 174.445714-334.994286 371.931428-731.428571H1.462857V748.324571zM621.787429 274.285714m-256 0a256 256 0 1 1 512 0 256 256 0 1 1-512 0ZM914.358857 274.285714m-256 0a256 256 0 1 1 512 0 256 256 0 1 1-512 0ZM768.146286 484.352A255.707429 255.707429 0 0 0 877.714286 274.285714c0-86.966857-43.373714-163.84-109.714286-210.066285A255.414857 255.414857 0 0 0 658.432 274.285714c0 84.845714 41.252571 160.036571 104.813714 206.628572z"  horiz-adv-x="1828" />

    
    <glyph glyph-name="third-subscript-hover" unicode="&#59014;" d="M1.462857 748.324571h1173.211429c92.891429-5.339429 164.571429-53.613714 215.04-144.896 50.468571-91.282286 174.445714-334.994286 371.931428-731.428571H1.462857V748.324571zM146.285714 859.428571v-111.104H1.462857zM621.787429 274.285714m-256 0a256 256 0 1 1 512 0 256 256 0 1 1-512 0ZM914.358857 274.285714m-256 0a256 256 0 1 1 512 0 256 256 0 1 1-512 0ZM768.146286 484.352A255.707429 255.707429 0 0 0 877.714286 274.285714c0-86.966857-43.373714-163.84-109.714286-210.066285A255.414857 255.414857 0 0 0 658.432 274.285714c0 84.845714 41.252571 160.036571 104.813714 206.628572z"  horiz-adv-x="1828" />

    
    <glyph glyph-name="subscript-recommend" unicode="&#59015;" d="M1023.256054 834.309518l-960.697505-961.007508H496.065936l30.876241 30.783241 496.313877 495.38387V834.309518zM961.25557 896l62.000484-61.690482-62.000484-62.465488zM124.12503-65.99951599999997l-61.690482-62.000484-62.434488 62.000484zM592.56969 208.476629L561.166444 177.07338300000004c-6.41705-6.41705 2.046016-12.617099 2.046016-12.617098l103.168806-89.900703c5.642044-5.642044 12.059094 0.775006 12.059094 0.775007l25.389199 25.420198c5.270041 5.270041 1.24001 9.300073 1.240009 9.300073L607.97681 207.174619a11.191087 11.191087 0 0 1-15.283119 1.612012l-0.093001-0.310002z m133.611043 159.310244l-52.855413-52.886413c-54.870429 95.542746-91.760717 63.457496-91.760716 63.457496-14.601114-14.601114-0.124001-23.560184 0.434003-26.536207 36.921288-36.921288 26.598208-103.602809 26.598208-103.60281l104.222814-104.222814c10.540082-10.540082 27.528215-1.426011 33.077258 4.123032l79.515622 79.515621c7.285057 7.316057-6.014047 33.23226-6.014047 33.23226-46.717365 86.335674-67.580528 107.136837-67.580528 107.136837a16.895132 16.895132 0 0 1-23.963188 0.558004l-1.33301-1.33301-0.310002 0.558004z"  horiz-adv-x="1054" />

    
    <glyph glyph-name="subscript-new" unicode="&#59016;" d="M1023.008533 834.014528L62.543642-126.76029100000005h433.402421L1023.008533 399.310412zM961.023061 895.690073L1023.008533 834.014528l-61.985472-62.419371zM124.126209-66.04552100000001l-61.706538-61.985472-62.41937 61.985472zM377.64679 121.18159800000001l156.451331-156.513317 25.661986 25.661985-114.425182 114.363196 0.89879 0.929783 192.619854-36.199516 24.980146 25.011138-156.451332 156.451332-25.878935-25.847942 112.875545-112.875545-0.867797-0.867797-190.233414 35.517676-25.630992-25.661986z m246.516222 166.307022c-16.860048-16.860048-24.515254-35.951574-22.562711-57.181598 1.332688-21.477966 10.53753-40.32155 27.397578-57.212591 18.843584-18.843584 38.802906-28.265375 60.063923-28.513317 20.145278-0.402906 38.771913 7.686199 55.662954 24.57724 15.093462 15.124455 23.244552 31.984504 24.763196 50.611138 0.867797 14.907506-2.851332 29.133172-10.75448 42.305084l-24.980145-24.980145c3.28523-9.421792 4.617918-17.324939 3.719128-23.864407-1.301695-8.368039-5.702663-16.240194-13.357869-23.926392-8.987893-8.987893-18.843584-13.14092-29.133172-12.490073-10.320581 0.68184-21.261017 5.919613-32.666343 15.558354l84.796125 84.827118c-20.362228 20.362228-40.972397 31.767554-61.365617 34.184988-22.562712 2.851332-42.924939-5.268765-61.582567-23.864406z m21.075061-19.71138c17.510896 17.510896 36.354479 18.409685 56.964649 2.169491l-58.297337-58.266344c-7.438257 10.506538-11.157385 20.362228-11.157385 29.567071 0 9.638741 4.153027 18.192736 12.45908 26.529782z m45.99322 80.643099l27.614528 27.583535 106.305085-61.117675-61.365618 106.057142 22.996611 23.027603 106.088135-61.365617-61.148668 106.305085 27.583535 27.583535 75.188378-151.430509-23.244552-23.244552-105.375303 60.280872 60.03293-105.623245-23.244552-23.244552-151.430509 75.188378z"  horiz-adv-x="1024" />

    
    <glyph glyph-name="subscript-hot" unicode="&#59018;" d="M961.25557 896l62.000484-61.690482-62.000484-62.465488zM124.12503-65.99951599999997l-61.690482-62.000484-62.434488 62.000484zM1023.256054 834.309518l-960.697505-961.007508H496.065936l527.190118 526.167111zM418.255328 164.89028800000006l156.489222-156.551223 25.668201 25.668201-69.285541 69.285541 79.36062 79.36062 69.254541-69.285541 25.6682 25.6372-156.551223 156.520223-25.6062-25.6372 65.31751-65.317511-79.36062-79.36062-65.31751 65.31751-25.668201-25.6372z m251.845967 171.617341c-17.298135-17.298135-25.6372-36.580286-24.552192-58.280455 0.651005-21.70017 9.858077-41.01332 27.404215-58.559458 17.329135-17.298135 36.580286-26.505207 57.877452-27.156212 21.917171-0.899007 41.416324 7.223056 58.745459 24.552192 17.081133 17.081133 25.420199 36.797287 24.552191 58.745459-0.868007 21.018164-9.858077 40.548317-27.187212 57.846452-17.546137 17.546137-37.045289 26.536207-58.528457 27.404214-21.917171 0.899007-41.230322-7.440058-58.280455-24.552192z m20.39816-20.367159c10.29208 10.29208 22.351175 14.446113 36.394284 11.842092 11.811092-2.201017 23.653185-8.773069 34.627271-19.747154 10.726084-10.726084 17.081133-22.351175 19.530152-34.410269 2.387019-13.826108-1.550012-26.071204-11.873093-36.394284-10.540082-10.540082-22.568176-14.260111-36.394284-11.842093-11.811092 2.201017-23.250182 8.773069-34.193267 19.747155-10.943085 10.943085-17.732139 22.568176-19.933156 34.410269-2.635021 14.012109 1.30201 25.854202 11.842093 36.394284z m60.481472 168.331315l36.611286-36.580286 25.203197 25.203197 20.615161-20.615161-25.203197-25.203197 64.0155-64.0155c2.635021-2.635021 5.022039-4.154032 7.874062-4.371034 2.635021 0 5.053039 1.085008 7.68806 3.720029l14.880116 14.880116 20.615161-20.584161-19.065149-19.065149c-9.858077-9.858077-19.716154-14.477113-29.605231-13.826108-9.207072 0.434003-18.166142 5.053039-27.373214 14.260112l-64.0155 64.0155-20.398159-20.398159-20.584161 20.615161 20.367159 20.367159-26.288205 26.319205 14.663114 35.278276z"  horiz-adv-x="1054" />

    
    <glyph glyph-name="empty-canvas1" unicode="&#59328;" d="M736 384c123.712 0 224-100.288 224-224s-100.288-224-224-224-224 100.288-224 224 100.288 224 224 224z m160 384v-368.504a286.976 286.976 0 0 1-64 32.112V512H191.992L192 64h272.392a286.976 286.976 0 0 1 32.112-64H128V768h768zM736 320c-88.368 0-160-71.632-160-160s71.632-160 160-160 160 71.632 160 160-71.632 160-160 160z m54.8-58.064l47.56-42.824-50.312-55.872 50.32-55.88-47.568-42.824-45.808 50.888-45.808-50.88-47.56 42.816 50.304 55.88-50.304 55.872 47.56 42.824 45.808-50.872 45.808 50.88zM832 704H192l-0.008-128h640L832 704z"  horiz-adv-x="1024" />

    
    <glyph glyph-name="box-choose" unicode="&#59006;" d="M832 704H192v-640h320v-64H128V768h768v-384h-64zM480 424l416-152.448L688 212 637.792 0z"  horiz-adv-x="1024" />

    
    <glyph glyph-name="single-choose" unicode="&#59008;" d="M319.6 574.56l416-152.448-208-59.552-50.2-212zM911.192 188.48000000000002a444.96 444.96 0 0 1 33.304 94.224A449.272 449.272 0 0 1 956 384c0 247.424-200.576 448-448 448s-448-200.576-448-448 200.576-448 448-448c34.456 0 68.424 3.896 101.44 11.544l-14.44 62.344A385.264 385.264 0 0 0 508 0c-212.08 0-384 171.92-384 384s171.92 384 384 384 384-171.92 384-384c0-29.544-3.328-58.624-9.864-86.88a380.96 380.96 0 0 0-28.512-80.672l57.568-27.968z"  horiz-adv-x="1024" />

    
    <glyph glyph-name="snapshot" unicode="&#59009;" d="M768 631.72h-49.8L652.792 704H368.344l-62.912-72.28H128V64h768V512h-64v-384H192V567.72h142.568L397.488 640h226.904l65.408-72.28H768zM512 216c70.696 0 128 57.304 128 128s-57.304 128-128 128-128-57.304-128-128 57.304-128 128-128z m0 64a64 64 0 1 0 0 128 64 64 0 0 0 0-128zM736 480m-32 0a32 32 0 1 1 64 0 32 32 0 1 1-64 0Z"  horiz-adv-x="1024" />

    
    <glyph glyph-name="auto-layout" unicode="&#59010;" d="M128 160h64v-96h96v-64H128V160z m768 0v-160H736v64h96V160h64z m0 608v-160h-64V704H736v64h160z m-608-64H192v-96h-64V768h160v-64zM288 576h192v-384H288zM544 576h192v-128H544zM544 384h192v-192H544z"  horiz-adv-x="1024" />

    
    <glyph glyph-name="empty-error-node1" unicode="&#59011;" d="M192 768v-160h128V704h576v-256H320V544H192v-320h128V320h576v-256H320V160H192v-160h-64V768h64z m519.56-480L664 245.17600000000004l50.312-55.872L664 133.42399999999998l47.56-42.824 45.808 50.88 45.808-50.88 47.568 42.824-50.32 55.88 50.32 55.872L803.176 288l-45.808-50.872L711.56 288zM832 640H384v-128h448V640z"  horiz-adv-x="1024" />

    
    <glyph glyph-name="fit-canvas" unicode="&#59012;" d="M896 768v-768H128V768h768z m-64-64H192v-640h640V704z m-60-352v-192h-384v63.992h-20.56a64 64 0 1 0 0 64.008l20.56 0.008V352h384z m-64-64h-256v-64h256v64z m64 320v-192h-384v63.992h-20.56a64 64 0 1 0 0 64.008l20.56 0.008V608h384z m-64-64h-256v-64h256v64z"  horiz-adv-x="1024" />

    
    <glyph glyph-name="notNodal" unicode="&#59005;" d="M704 384c106.04 0 192-85.96 192-192s-85.96-192-192-192-192 85.96-192 192 85.96 192 192 192z m-480 0a95.76 95.76 0 0 0 71.56-32h208.584a255.792 255.792 0 0 1-37.536-64H320c0-41.8-26.712-77.36-64-90.536V128h200.064a254.424 254.424 0 0 1 26.184-64H192V197.46400000000006C154.72 210.64 128 246.20000000000005 128 288c0 53.016 42.984 96 96 96z m480-64c-70.696 0-128-57.304-128-128s57.304-128 128-128 128 57.304 128 128-57.304 128-128 128z m46.8-26.064l47.56-42.824-50.32-55.872 50.32-55.88-47.56-42.824-45.808 50.88-45.808-50.88-47.56 42.824 50.312 55.88-50.32 55.872 47.568 42.824 45.808-50.872 45.808 50.88zM224 320a32 32 0 1 1 0-64 32 32 0 0 1 0 64z m608 224v-130.248a254.424 254.424 0 0 1-64 26.184V544h64z m-32 224c53.016 0 96-42.984 96-96s-42.984-96-96-96c-41.8 0-77.36 26.712-90.536 64H256v-192h-64V704h517.464c13.176 37.28 48.736 64 90.536 64z m0-64a32 32 0 1 1 0-64 32 32 0 0 1 0 64z"  horiz-adv-x="1024" />

    
    <glyph glyph-name="locate-node" unicode="&#59007;" d="M904 768L72 448l425.168-95.76L584-64l320 832zM602.272 161.79200000000003l-50.864 243.84-259.392 58.416 500.56 192.528-190.304-494.784z"  horiz-adv-x="1024" />

    
    <glyph glyph-name="save" unicode="&#59034;" d="M128 64V704h271.104l84.48-74.24H896V64H128z m64 64h640V569.6H465.472L384.192 640H192v-512z m473.6 214.912H553.088V230.39999999999998h-56.512V342.976H384v56.512h112.512V512h56.512v-112.512H665.6v-56.576z"  horiz-adv-x="1024" />

    
    <glyph glyph-name="replace" unicode="&#59033;" d="M626.304 745.792a25.6 25.6 0 0 0 0.384 0c113.28-11.008 203.008-88 217.6-206.528h55.04l-79.744-118.464-79.616 118.464h49.28C775.04 625.472 709.12 676.48 626.368 686.528v59.264zM525.696 748.544v-326.528H192.64l0.832 326.528h332.288zM470.72 480.64h0.064V688.384H247.552V480.64h223.168zM429.12 76.79999999999995v-59.392c-117.888 15.552-208.64 102.464-210.752 234.752h-52.736l79.68 118.464 79.552-118.464h-52.672c3.2-99.648 68.864-161.92 156.928-175.36zM540.288 340.15999999999997h333.056v-326.272H540.288V340.15999999999997z m278.144-266.368V280.32000000000005H595.264v-206.528h223.168z"  horiz-adv-x="1024" />

    
    <glyph glyph-name="axis" unicode="&#59023;" d="M384 746.688v-704H298.688v704H384z m-192-533.376h682.688V128H192v85.312z"  horiz-adv-x="1024" />

    
    <glyph glyph-name="theme" unicode="&#59024;" d="M744.576 187.264c39.232 0 71.296 32.576 71.296 72.32 0 48.128-71.296 126.528-71.296 126.528s-71.36-78.4-71.36-126.464c0-39.808 32.064-72.32 71.36-72.32z m-338.816 39.68c6.4-6.4 16.704-6.4 23.04 0l230.08 229.952c6.4 6.4 6.4 16.704 0 23.04L428.8 709.888a14.72 14.72 0 0 1-1.792 1.536L356.8 781.696a8.192 8.192 0 0 1-11.52 0l-43.136-43.136c-3.136-3.136-3.136-8.32 0-11.52l60.416-60.352L175.872 480c-6.4-6.4-6.4-16.704 0-23.04l229.888-229.952z m11.584 403.008l160.768-160.704H256.64l160.64 160.704z m450.816-507.072H163.84a7.232 7.232 0 0 1-7.232-7.168v-71.872c0-3.968 3.2-7.232 7.232-7.232h704.32c3.968 0 7.232 3.2 7.232 7.232v71.872a7.232 7.232 0 0 1-7.232 7.168z"  horiz-adv-x="1024" />

    
    <glyph glyph-name="opacity" unicode="&#59025;" d="M800 128V640h-576v-512h320V640h256v-512z m-640 576h704v-640h-704V704z"  horiz-adv-x="1024" />

    
    <glyph glyph-name="contrast" unicode="&#59026;" d="M896 384A384 384 0 1 0 128 384a384 384 0 0 0 768 0z m-64 0A320 320 0 1 1 192 384a320 320 0 0 1 640 0z m-320-256V640a256 256 0 1 0 0-512z"  horiz-adv-x="1024" />

    
    <glyph glyph-name="assist" unicode="&#59027;" d="M170.688 682.688h682.624v-85.376H170.688V682.688z m0-512h682.624v-85.376H170.688v85.376z m0 256h682.624v-85.376H170.688V426.688z"  horiz-adv-x="1024" />

    
    <glyph glyph-name="text" unicode="&#59028;" d="M256 564.48h209.28v-520.448h139.456V564.48h209.216V704H256z"  horiz-adv-x="1024" />

    
    <glyph glyph-name="hue" unicode="&#59029;" d="M608 128h192V640h-576v-512h192V640h192v-512z m-448 576h704v-640h-704V704z"  horiz-adv-x="1024" />

    
    <glyph glyph-name="saturate" unicode="&#59030;" d="M512 0A384 384 0 1 0 512 768a384 384 0 0 0 0-768z m0 64A320 320 0 1 1 512 704a320 320 0 0 1 0-640zM256 384h512a256 256 0 1 0-512 0z"  horiz-adv-x="1024" />

    
    <glyph glyph-name="background" unicode="&#59031;" d="M800 408V640h-576v-232h576z m0-64h-576V128h576V344zM160 704h704v-640h-704V704z"  horiz-adv-x="1024" />

    
    <glyph glyph-name="brightness" unicode="&#59032;" d="M512 128a256 256 0 1 1 0 512 256 256 0 0 1 0-512z m0 64a192 192 0 1 0 0 384 192 192 0 0 0 0-384zM512 640a256 256 0 1 0 0-512V640z m-32 192h64v-128h-64V832z m0-760h64v-128h-64v128zM192 416v-64H64v64h128z m768 0v-64h-128v64h128z m-112.832-324.992l-45.248-45.248-90.56 90.496 45.312 45.248 90.496-90.496z m-37.44 633.088l45.248-45.248-90.496-90.496-45.248 45.248 90.496 90.496z m-544-543.232l45.248-45.248-90.496-90.496-45.248 45.248 90.496 90.496z m44.352 452.288l-45.248-45.248L174.336 678.4l45.248 45.248 90.496-90.496z"  horiz-adv-x="1024" />

    
    <glyph glyph-name="link" unicode="&#58983;" d="M448 448h-64v-128h64v-128H64V576h384v-128z m128-128h64V448h-64V576h384v-384H576V320zM128 512v-256h256V512H128z m512 0v-256h256V512H640zM284 352h448v64h-448z"  horiz-adv-x="1024" />

    
    <glyph glyph-name="unlink" unicode="&#58999;" d="M384 448v64H128v-256h208.016l-45.392-64H64V576h384v-128h-64z m192-128h64v-64h256V512H694.144l45.4 64H960v-384H576V320z m118.56 389.288l53.248-35.496-403.504-605.256-53.248 35.504 403.496 605.248z"  horiz-adv-x="1024" />

    
    <glyph glyph-name="plugin" unicode="&#59326;" d="M760 212V-24H507.696v68.104H356.304V-24H104V231.44000000000005h151.384V384.656H104V640h136v24c0 70.696 57.304 128 128 128s128-57.304 128-128v-24h264v-172h36c70.696 0 128-57.304 128-128s-57.304-128-128-128H760z m-64 64h100a64 64 0 1 1 0 128H696V576H432V664a64 64 0 1 1-128 0v-88H168v-127.336h151.384V167.44000000000005H168V40h124.304v68.104h279.392V40H696V276z"  horiz-adv-x="1024" />

    
    <glyph glyph-name="carousel" unicode="&#59324;" d="M490.016 183.11199999999997V411.232L292.64 522.72A23 23 0 0 0 280 542.8a22.984 22.984 0 0 0 11.92 20.528 23.296 23.296 0 0 0 23.832-0.8l194.904-113.16 213.48 115.496a24.4 24.4 0 0 0 32.688-8.424c3.152-5.312 4-11.672 2.336-17.616a22.8 22.8 0 0 0-11.12-13.92l-211.76-113.68V182.96000000000004a22.984 22.984 0 0 0-11.616-19.904c-7.176-4.096-16.008-4.08-23.168 0.048a22.984 22.984 0 0 0-11.536 19.96l0.048 0.048zM512 808l320-188v-376L512 56 192 244v376L512 808z m0-65.536L247.776 587.232v-310.464L512 121.53599999999994l264.224 155.232V587.232L512 742.4639999999999zM480 0h64v-64h-64v64z m16-16v-32h32v32h-32zM608 0h64v-64h-64zM360 0h64v-64h-64v64z m16-16v-32h32v32h-32z"  horiz-adv-x="1024" />

    
    <glyph glyph-name="to-workspace" unicode="&#59323;" d="M272.616 560H968v-485.336H272.616V560z m69.536-69.336V144h547.616V490.664H342.16z m67.504-485.328h417.232V-64H409.656v69.336z m419.264 624h-78.224v69.328H133.536v-416h60.848v-69.328H64V768h764.92v-138.664z m-243.92-278.336V456h70v-105H760v-70H655V176h-70V281H480v70h105z"  horiz-adv-x="1024" />

    
    <glyph glyph-name="copy" unicode="&#59322;" d="M576 320V448h64v-128h128v-64H640v-128h-64V256H448v64h128zM320 640h576v-704H320V640z m64-64v-576h448V576H384z m320 128h-64v64H192v-640h64v-64H128V832h576v-128z"  horiz-adv-x="1024" />

    
    <glyph glyph-name="work-order" unicode="&#59321;" d="M544 768H224v-768h576V512H544V768z m64 0v-192h192L608 768zM416 416h320v-64H416v64z m0-192h320v-64H416v64zM288 416h64v-64h-64v64z m0-192h64v-64h-64v64zM160 832h474.512L864 602.512V-64H160V832z"  horiz-adv-x="1024" />

    
    <glyph glyph-name="level" unicode="&#59320;" d="M64 384a448 448 0 1 0 896 0A448 448 0 0 0 64 384z m605.056 224L448 235.51999999999998 511.552 128l280.448 480h-122.944z m-437.056 0l198.848-320L496 391.296 361.344 608H232z"  horiz-adv-x="1024" />

    
    <glyph glyph-name="sort" unicode="&#59017;" d="M409.6 640m-51.2 0a51.2 51.2 0 1 1 102.4 0 51.2 51.2 0 1 1-102.4 0ZM614.4 640m-51.2 0a51.2 51.2 0 1 1 102.4 0 51.2 51.2 0 1 1-102.4 0ZM409.6 384m-51.2 0a51.2 51.2 0 1 1 102.4 0 51.2 51.2 0 1 1-102.4 0ZM614.4 384m-51.2 0a51.2 51.2 0 1 1 102.4 0 51.2 51.2 0 1 1-102.4 0ZM409.6 128m-51.2 0a51.2 51.2 0 1 1 102.4 0 51.2 51.2 0 1 1-102.4 0ZM614.4 128m-51.2 0a51.2 51.2 0 1 1 102.4 0 51.2 51.2 0 1 1-102.4 0Z"  horiz-adv-x="1024" />

    
    <glyph glyph-name="help-doc" unicode="&#59319;" d="M544 768H224v-768h576V512H544V768z m64 0v-192h192L608 768zM288 416h448v-64H288v64z m0-192h448v-64H288v64zM160 832h474.512L864 602.512V-64H160V832z"  horiz-adv-x="1024" />

    
    <glyph glyph-name="goto" unicode="&#59318;" d="M725.424 416L511.016 684.008l49.968 39.984 272-339.992-272-339.992-49.968 39.984L725.416 352H128v64z"  horiz-adv-x="1024" />

    
    <glyph glyph-name="select" unicode="&#58910;" d="M832 112L752 192 512 112 272 192 192 112 512-128zM832 656L752 576 512 656 272 576 192 656 512 896z"  horiz-adv-x="1024" />

    
    <glyph glyph-name="ungroup" unicode="&#59314;" d="M896 345.46400000000006A215.312 215.312 0 0 1 744 408c-119.296 0-216-96.704-216-216 0-44.4 13.4-85.68 36.376-120H128V696h384v-128h384v-222.536zM128 504v-64h768v64H128z m580.64-392.608c10.824-4.752 22.784-7.392 35.36-7.392 48.6 0 88 39.4 88 88 0 12.576-2.64 24.536-7.392 35.36L708.648 111.38400000000001z m-45.248 45.256l115.96 115.96A87.696 87.696 0 0 1 744 280c-48.6 0-88-39.4-88-88 0-12.576 2.64-24.536 7.392-35.36zM744 40c-83.944 0-152 68.056-152 152s68.056 152 152 152 152-68.056 152-152-68.056-152-152-152z"  horiz-adv-x="1024" />

    
    <glyph glyph-name="group" unicode="&#59315;" d="M512 576h384v-64H128V704h384v-128zM128 448h768v-368H128V448z"  horiz-adv-x="1024" />

    
    <glyph glyph-name="back" unicode="&#59004;" d="M413.256 381.63199999999995L686.4 649.136 641.6 694.864 322.744 382.55999999999995l318.4-324.96 45.712 44.8z"  horiz-adv-x="1024" />

    
    <glyph glyph-name="workspace" unicode="&#59313;" d="M272.616 560H968v-485.336H272.616V560z m69.536-69.336V144h547.616V490.664H342.16z m67.504-485.328h417.232V-64H409.656v69.336z m419.264 624h-78.224v69.328H133.536v-416h60.848v-69.328H64V768h764.92v-138.664z"  horiz-adv-x="1024" />

    
    <glyph glyph-name="exit" unicode="&#58992;" d="M384 768v-64H192v-640h192v-64H128V768h256zM780.192 353.592H256v64h518.16L625.056 562.0319999999999 669.584 608l230.656-223.44-230.56-234.992L624 194.39999999999998l156.192 159.2z"  horiz-adv-x="1024" />

    
    <glyph glyph-name="update" unicode="&#59002;" d="M126.72 252.79999999999995h64v-192h640v192h64v-256h-768v256zM542.408 647.952V123.75999999999999h-64V641.92L333.968 492.816 288 537.36 511.44 768l234.992-230.56-44.824-45.68-159.2 156.192z"  horiz-adv-x="1024" />

    
    <glyph glyph-name="renew" unicode="&#59003;" d="M512-36C280.04-36 92 152.03999999999996 92 384S280.04 804 512 804s420-188.04 420-420-188.04-420-420-420z m0 60c198.825 0 360 161.175 360 360S710.825 744 512 744 152 582.825 152 384s161.175-360 360-360z m77.8575 420H692v-60H542v-60h150v-60H542v-180h-60V264H332v60h150v60H332v60h101.6025L347 594l51.96 30 90-155.8875L447.2 444h129.075L534.5 468.1125 624.5 624l51.96-30-86.6025-150z"  horiz-adv-x="1024" />

    
    <glyph glyph-name="com-all" unicode="&#59311;" d="M192 704v-192h192V704H192z m448 0v-192h192V704H640z m0-448v-192h192V256H640zM128 768h320v-320H128V768z m448 0h320v-320H576V768z m0-448h320v-320H576V320z m-448 0h320v-320H128V320z m64-64v-192h192V256H192z"  horiz-adv-x="1024" />

    
    <glyph glyph-name="authorize" unicode="&#59001;" d="M484.536 352.72L382.624 454.624l-45.248-45.248 154.08-154.096L705.6 540.8l-51.2 38.4zM832 704h64v-614.4L512-64l-384 153.6V704h64v-571.072l320-128 320 128V704zM896 711.2719999999999V632h-1.28C801.2 710.24 664.8 760 512 760c-152.8 0-289.2-49.76-382.72-128H128v79.272C230.144 781.552 364.92 824 512 824s281.856-42.448 384-112.728z"  horiz-adv-x="1024" />

    
    <glyph glyph-name="com-text" unicode="&#59000;" d="M128 768h768v-768H128V768z m64-64v-640h640V704H192z m352-192v-320h-64V512H320v64h384v-64H544z"  horiz-adv-x="1024" />

    
    <glyph glyph-name="align-bottom" unicode="&#58997;" d="M896 64H128v-64h768v64z m-512 64V576H192v-448h192z m256 512v-448h128V640H640z m192-512H576V704h256v-576z"  horiz-adv-x="1024" />

    
    <glyph glyph-name="align-top" unicode="&#58998;" d="M128 704h768v64H128v-64z m64-64v-448h192V640H192z m576-512V576H640v-448h128zM576 640h256v-576H576V640z"  horiz-adv-x="1024" />

    
    <glyph glyph-name="com-decorate" unicode="&#59317;" d="M240.472 112.47199999999998c-149.96 149.96-149.96 393.096 0 543.056 149.96 149.96 393.096 149.96 543.056 0 149.96-149.96 149.96-393.096 0-543.056-149.96-149.96-393.096-149.96-543.056 0zM737.12 611.4159999999999c-124.96 124.968-327.576 124.968-452.544 0-124.968-124.96-124.968-327.576 0-452.544 124.96-124.968 327.576-124.968 452.544 0 124.968 124.96 124.968 327.576 0 452.544zM320 320a64 64 0 1 0 0 128 64 64 0 0 0 0-128z m192 0a64 64 0 1 0 0 128 64 64 0 0 0 0-128z m192 0a64 64 0 1 0 0 128 64 64 0 0 0 0-128z"  horiz-adv-x="1024" />

    
    <glyph glyph-name="rili" unicode="&#58975;" d="M256 704v-64h512v64h128v-704H128V704h128z m-64-64v-576h640V640H192zM320 768h64v-128h-64zM288 512h64v-64h-64zM288 256h64v-64h-64zM416 256h64v-64h-64zM544 256h64v-64h-64zM416 512h64v-64h-64zM544 512h64v-64h-64zM672 512h64v-64h-64zM416 384h64v-64h-64zM544 384h64v-64h-64zM672 384h64v-64h-64zM672 256h64v-64h-64zM480 768h64v-128h-64zM640 768h64v-128h-64z"  horiz-adv-x="1024" />

    
    <glyph glyph-name="com-tutorial" unicode="&#58981;" d="M256 332.28L129.8 408 512 637.3199999999999 894.2 408H896v-128h-64V370.67999999999995l-64-38.4v-287.584C694.072 16.05600000000004 607.76 0 516 0c-95.096 0-184.328 17.232-260 47.864v84.4a544.4 544.4 0 0 1 64-23.96V56h-64V332.28z m64-38.4v-185.576c58.536-17.92 125.104-28.304 196-28.304 67.688 0 131.424 9.464 188 25.92V293.88l-192-115.2-192 115.2zM832 216h64v-64h-64v64zM128 704v-704H64V768h896v-64H128z m384-450.68L769.8 408 512 562.6800000000001 254.2 408 512 253.32000000000005z"  horiz-adv-x="1024" />

    
    <glyph glyph-name="align-middle" unicode="&#58982;" d="M224 704v-576h192V704H224z m320-288H128v-64h416v-352h256V352h96v64h-96V768H544v-352z m192-64v-288H608V352h128z m0 64H608V704h128v-288z"  horiz-adv-x="1024" />

    
    <glyph glyph-name="guanxiwangluo" unicode="&#58984;" d="M361.168 238.56l-106.72-69.304c1.024-5.6 1.552-11.36 1.552-17.256 0-53.016-42.984-96-96-96S64 98.984 64 152s42.984 96 96 96c23.888 0 45.736-8.72 62.536-23.16l109.336 71A223.72 223.72 0 0 0 320 368c0 123.712 100.288 224 224 224 6.96 0 13.84-0.32 20.632-0.936l8.304 59.112A96 96 0 0 0 520 736c0 53.016 42.984 96 96 96s96-42.984 96-96c0-46-32.36-84.448-75.552-93.816l-9.296-66.128C709.68 543.04 768 462.328 768 368a223.04 223.04 0 0 0-47.448-137.88l39.328-46.88A95.64 95.64 0 0 0 800 192c53.016 0 96-42.984 96-96s-42.984-96-96-96-96 42.984-96 96c0 15.256 3.56 29.68 9.888 42.48l-39.64 47.256A222.984 222.984 0 0 0 544 144c-75.488 0-142.248 37.336-182.832 94.56zM544 208c88.368 0 160 71.632 160 160s-71.632 160-160 160-160-71.632-160-160 71.632-160 160-160z"  horiz-adv-x="1024" />

    
    <glyph glyph-name="com-regular_bar" unicode="&#58985;" d="M384 64h128V640h64v-576h128V384h64v-320h128v-64H128V768h64v-704h128V448h64v-384z"  horiz-adv-x="1024" />

    
    <glyph glyph-name="tutorial" unicode="&#58986;" d="M896 402.288L512 176 64 440l448 264 448-264v-184h-64V402.288zM512 630.5360000000001L188.664 440 512 249.46400000000006 835.336 440 512 630.5360000000001z m256-585.84C694.072 16.05600000000004 607.76 0 516 0c-95.096 0-184.328 17.232-260 47.864v68.4C327.792 83.952 417.728 64 516 64c94.656 0 181.576 18.512 252 48.744v-68.048zM896 192h64v-64h-64v64zM256 336h64v-280h-64V336z m448 16h64v-296h-64V352z"  horiz-adv-x="1024" />

    
    <glyph glyph-name="com-others" unicode="&#58987;" d="M240.472 112.47199999999998c-149.96 149.96-149.96 393.096 0 543.056 149.96 149.96 393.096 149.96 543.056 0 149.96-149.96 149.96-393.096 0-543.056-149.96-149.96-393.096-149.96-543.056 0zM737.12 611.4159999999999c-124.96 124.968-327.576 124.968-452.544 0-124.968-124.96-124.968-327.576 0-452.544 124.96-124.968 327.576-124.968 452.544 0 124.968 124.96 124.968 327.576 0 452.544zM320 320a64 64 0 1 0 0 128 64 64 0 0 0 0-128z m192 0a64 64 0 1 0 0 128 64 64 0 0 0 0-128z m192 0a64 64 0 1 0 0 128 64 64 0 0 0 0-128z"  horiz-adv-x="1024" />

    
    <glyph glyph-name="my-data" unicode="&#58988;" d="M768 704h192v-704H64V704h512v-64h64v64h64v-64h64v64z m-640-64v-568h768V640H128z m256-179.264L280.72 360 384 259.264 339.64 216 192 360l147.64 144L384 460.736z m256 0L684.36 504 832 360 684.36 216 640 259.264 743.28 360 640 460.736z m-51.712 89.544l55.424-32-192-332.56-55.424 32 192 332.56z"  horiz-adv-x="1024" />

    
    <glyph glyph-name="com-media_video" unicode="&#58989;" d="M288 512c-53.016 0-96 42.984-96 96s42.984 96 96 96 96-42.984 96-96-42.984-96-96-96z m224-32a64 64 0 1 0 0 128 64 64 0 0 0 0-128z m192-192l192 96v-384l-192 96v-96H128V384h576v-96z m0-71.552v-48.896l128-64V280.448l-128-64zM640 256v64H192v-256h448V256z"  horiz-adv-x="1024" />

    
    <glyph glyph-name="screens" unicode="&#58990;" d="M512 704L128 576l384-128 384 120-384 136z m181.576-132.208L512.64 515.248 330.4 576l180.976 60.328 182.208-64.536zM326.616 386.208l101.2-33.728L330.384 320l182.248-60.752 180.944 56.544-94.64 33.52 101.84 31.832L896 312 512 192 128 320l198.616 66.208zM326.616 194.20799999999997l101.2-33.728L330.384 128l182.248-60.752 180.944 56.544-94.64 33.52 101.84 31.832L896 120l-384-120-384 128 198.616 66.208z"  horiz-adv-x="1024" />

    
    <glyph glyph-name="com-package" unicode="&#58991;" d="M688 736h240v-56H688v56z m-294.856-704H96V736h534.856v-117.336H928v-232.216l-59.432 34.216V560H571.44V677.336h-416v-586.672h237.712V32h-0.008zM704.416 250.62400000000002l93.52 43.168a24 24 0 0 0 20.12-43.584L728 208.64800000000002V88a24 24 0 0 0-48 0V209.168l-82.736 41.36a24 24 0 0 0 21.472 42.936l85.68-42.84zM704 448l207.84-120v-240L704-32l-207.84 120V328L704 448zM544.16 300.288v-184.576L704 23.423999999999978l159.84 92.288V300.288L704 392.576 544.16 300.288z"  horiz-adv-x="1024" />

    
    <glyph glyph-name="my-com" unicode="&#58993;" d="M480 250c-112.16-6.512-211.648-68.064-263.4-161.36L160 116.65599999999995c65.704 118.448 195.64 194.28 339.792 194.28 23.256 0 46.144-1.976 68.448-5.784L480 250z m19.792 91.12c-141.16 0-255.6 108.088-255.6 241.44C244.192 715.904 358.64 824 499.792 824s255.592-108.096 255.592-241.44c0-133.352-114.432-241.44-255.6-241.44z m0 60.352c105.864 0 191.688 81.072 191.688 181.088 0 100-85.824 181.08-191.688 181.08-105.872 0-191.696-81.072-191.696-181.08 0-100.016 85.824-181.088 191.696-181.088zM719.8 182.70399999999995l87.936 39.264c11.4 5.096 24.904 0.28 30.16-10.752 5.264-11.032 0.288-24.104-11.112-29.192L744 145.05600000000004v-114.712c0-12.344-10.144-22.344-22.664-22.344-12.52 0-22.664 10-22.664 22.344V143.15200000000004l-78.136 38.512a22.2 22.2 0 0 0-10.136 29.976c5.6 11.04 19.208 15.52 30.4 10l79-38.936zM720 360l192-110v-220L720-80l-192 110v220L720 360zM572.344 224.60000000000002v-169.2L720-29.192000000000007l147.656 84.592v169.2L720 309.192 572.344 224.60000000000002z"  horiz-adv-x="1024" />

    
    <glyph glyph-name="forum" unicode="&#58994;" d="M512 192L384 320H128V832h768v-512H640L512 192z m101.488 192H832V768H192v-384h218.512L512 282.51199999999994 613.488 384zM128 128h128v-128H128zM344 128h128v-128H344zM552 128h128v-128H552zM768 128h128v-128H768z"  horiz-adv-x="1024" />

    
    <glyph glyph-name="help-doc-old" unicode="&#58995;" d="M518.304 536c38.832 0 70.048-10.648 93.672-31.936C635.992 483.16 648 454.44 648 417.872c0-29.32-7.6-53.84-22.816-73.52-5.2-6.424-22.016-22.096-50.44-47-11.2-9.24-19.616-19.688-25.216-31.344-6.408-11.648-9.608-24.904-9.608-39.768V216h-64.24v10.24c0 23.312 4 42.384 12 57.256 7.6 16.072 30.224 40.976 67.856 74.72l10.2 11.464c11.2 14.464 16.816 29.12 16.816 43.984 0 20.496-5.8 36.96-17.416 49.416-12 12.056-29.016 18.08-51.032 18.08-27.224 0-46.832-8.64-58.848-25.92-10.8-14.456-16.208-34.944-16.208-61.464H376c0 43.792 12.608 78.336 37.824 103.656C439.048 523.136 473.872 536 518.304 536z m14.976-381.936c7.4-6.8 11.104-15.936 11.104-27.392 0-10.744-3.88-20.056-11.632-27.936-7.76-7.152-16.92-10.736-27.488-10.736-10.928 0-20.088 3.76-27.488 11.28-7.408 7.52-11.112 16.648-11.112 27.392 0 11.456 3.704 20.584 11.104 27.392 7.048 7.152 16.216 10.736 27.496 10.736 11.624 0 20.96-3.584 28.016-10.736zM584 768H224v-768h576V560H584V768z m64-40v-104h104L648 728zM160 832h474.512L864 602.512V-64H160V832z"  horiz-adv-x="1024" />

    
    <glyph glyph-name="favorite-fold" unicode="&#58996;" d="M688 736h240v-56H688v56z m-294.856-704H96V736h534.856v-117.336H928v-232.216l-59.432 34.216V560H571.44V677.336h-416v-586.672h237.712V32zM688 50.583999999999946L529.784 8l-8.48 163.96L432 309.6l152.976 58.752L688 496l103.024-127.648L944 309.6l-89.304-137.64-8.48-163.96L688 50.583999999999946z m0 58.04L796.776 80l5.824 110.2L864 282.72l-105.168 39.488L688 408l-70.832-85.8L512 282.72l61.4-92.512 5.824-110.2L688 108.62400000000002z"  horiz-adv-x="1024" />

    
    <glyph glyph-name="jinggao" unicode="&#58980;" d="M480 512h64v-256h-64V512z m0-384v64h64v-64h-64z m36 704L960 0H64L516 832z m-0.504-134.992L171.6 64h681.704L515.496 697.008z"  horiz-adv-x="1024" />

    
    <glyph glyph-name="fullscreen" unicode="&#58979;" d="M875.08 58.176000000000045l-45.256-45.256-248.904 248.904 45.256 45.256 248.904-248.904z m-46.112-3.144l-34.504 6.216-13.576 13.584 28.28 28.28 13.584-13.576 6.216-34.504zM829.824 755.08l45.256-45.256-248.904-248.904-45.256 45.256 248.904 248.904z m-0.856-42.112l-6.216-34.504-13.584-13.576-28.28 28.28 13.576 13.584 34.504 6.216zM381.824 307.08000000000004l45.256-45.256-248.904-248.904-45.256 45.256 248.904 248.904z m-0.856-42.112l-6.216-34.504-13.584-13.576-28.28 28.28 13.576 13.584 34.504 6.216zM427.08 506.176l-45.256-45.256-248.904 248.904 45.256 45.256 248.904-248.904z m-46.112-3.144l-34.504 6.216-13.576 13.584 28.28 28.28 13.584-13.576 6.216-34.504zM384 704H192v-192h-64V768h256v-64z m448-192V704H640v64h256v-256h-64z m-192-448h192V256h64v-256H640v64zM192 256v-192h192v-64H128V256h64z"  horiz-adv-x="1024" />

    
    <glyph glyph-name="zoom-out" unicode="&#58974;" d="M832 448v-64H192v64h640z"  horiz-adv-x="1024" />

    
    <glyph glyph-name="zoom-in" unicode="&#58978;" d="M480 448V704h64v-256h288v-64H544v-320h-64V384H192v64h288z"  horiz-adv-x="1024" />

    
    <glyph glyph-name="array-add" unicode="&#59325;" d="M480 448V640h64v-192h224v-64H544v-256h-64V384H256v64h224z"  horiz-adv-x="1024" />

    
    <glyph glyph-name="local-deploy" unicode="&#58973;" d="M480 243.808V768h64v-518.16l144.44 149.104 45.968-44.528-223.44-230.656-234.984 230.56L320.8 400 480 243.808z m-288-179.608h640V128h64v-128H128V128.39999999999998h64v-64.2z"  horiz-adv-x="1024" />

    
    <glyph glyph-name="add" unicode="&#58976;" d="M480 448V640h64v-192h224v-64H544v-256h-64V384H256v64h224z"  horiz-adv-x="1024" />

    
    <glyph glyph-name="minus" unicode="&#58977;" d="M256 448h512v-64H256z"  horiz-adv-x="1024" />

    
    <glyph glyph-name="close" unicode="&#59156;" d="M512 438.848L841.152 768l54.848-54.848L566.848 384 896 54.847999999999956l-54.848-54.848L512 329.15200000000004 182.848 0 128 54.847999999999956 457.152 384 128 713.152 182.848 768 512 438.848z"  horiz-adv-x="1024" />

    
    <glyph glyph-name="keyboard" unicode="&#59307;" d="M530.664-64l-96 96h192l-96-96zM320 256v64h384v-64H320z m-32 320v-64h-64v64h64z m64-128v-64h-64v64h64z m128 0v-64h-64v64h64z m128 0v-64h-64v64h64z m128 0v-64h-64v64h64zM416 576v-64h-64v64h64z m128 0v-64h-64v64h64z m128 0v-64h-64v64h64z m128 0v-64h-64v64h64zM32 736h960v-608H32V736z m64-64v-480h832V672H96z"  horiz-adv-x="1024" />

    
    <glyph glyph-name="filter" unicode="&#59308;" d="M128 768h768L640 448v-256l-256-192V448L128 768z m133.16-64L448 470.448V128l128 96V470.448L762.84 704h-501.68z"  horiz-adv-x="1024" />

    
    <glyph glyph-name="line-show" unicode="&#58972;" d="M320 338C405.336 454 490.664 512 576 512c85.336 0 170.664-58 256-174C746.664 240.664 661.336 192 576 192c-85.336 0-170.664 48.664-256 146z m96 5.6C469.336 285.20000000000005 522.664 256 576 256s106.664 29.2 160 87.6C682.664 413.2 629.336 448 576 448s-106.664-34.8-160-104.4zM576 288a64 64 0 1 0 0 128 64 64 0 0 0 0-128zM192 704V832h64v-128h640v-64H256v-640h-64V640H64v64h128z"  horiz-adv-x="1024" />

    
    <glyph glyph-name="line-hide" unicode="&#58948;" d="M629.808 504.32l-56.344-56.344C520.976 446.88 468.488 412.096 416 343.6a416 416 0 0 1 26.48-26.6l-49.976-49.984c-24.168 19.76-48.336 43.416-72.504 70.984C405.336 454 490.664 512 576 512c17.936 0 35.872-2.56 53.808-7.68z m113.968-67.056c29.408-26.2 58.816-59.28 88.224-99.264C746.664 240.664 661.336 192 576 192c-22.456 0-44.92 3.368-67.376 10.112l54.456 54.456c4.304-0.376 8.616-0.568 12.92-0.568 53.336 0 106.664 29.2 160 87.6-13.368 17.44-26.736 32.704-40.112 45.784l47.888 47.88zM192 704V832h64v-128h640v-64H256v-640h-64V640H64v64h128zM749.016 578.2719999999999l45.256-45.256-407.288-407.288-45.256 45.256z"  horiz-adv-x="1024" />

    
    <glyph glyph-name="unlock" unicode="&#58971;" d="M704 512h192v-512H128V512h160V768h448v-172.016h-64V704H352v-192h352z m0-64H192v-384h640V448H704zM480 352h64v-192h-64V352z"  horiz-adv-x="1024" />

    
    <glyph glyph-name="align-horizontal" unicode="&#58969;" d="M768 0V768h64v-768h-64z m-576 0V768h64v-768h-64z m416 128H416V640h192v-512z"  horiz-adv-x="1024" />

    
    <glyph glyph-name="align-vertical" unicode="&#58970;" d="M896 640H128v64h768v-64z m0-576H128v64h768v-64zM768 480v-192H256V480h512z"  horiz-adv-x="1024" />

    
    <glyph glyph-name="align-center" unicode="&#58968;" d="M768 672H256v-192h512V672zM544 352V768h-64v-416H192v-256h288v-96h64v96h288V352H544z m-64-192H256V288h224v-128z m64 0V288h224v-128H544z"  horiz-adv-x="1024" />

    
    <glyph glyph-name="com-media_image" unicode="&#59310;" d="M370.744 64l224 224L480 402.744l-288-288V64h178.744z m90.512 0H832V185.904L704.544 307.288 461.256 64zM832 274.288V704H192v-498.744l288 288 160-160 63.456 63.456L832 274.288zM128 768h768v-768H128V768z m544-320c-53.016 0-96 42.984-96 96s42.984 96 96 96 96-42.984 96-96-42.984-96-96-96z"  horiz-adv-x="1024" />

    
    <glyph glyph-name="help-copy" unicode="&#59329;" d="M512 14.859375C308.12890625 14.859375 142.859375 180.12890625 142.859375 384S308.12890625 753.140625 512 753.140625s369.140625-165.26953125 369.140625-369.140625-165.26953125-369.140625-369.140625-369.140625z m0 52.734375c174.74853516 0 316.40625 141.65771484 316.40625 316.40625S686.74853516 700.40625 512 700.40625 195.59375 558.7485351600001 195.59375 384s141.65771484-316.40625 316.40625-316.40625z m13.01220703 540.52734375c39.51782227 0 71.296875-10.96875 95.3371582-32.89306641C644.79833984 553.69921875 657.01953125 524.11523438 657.01953125 486.45629883c0-30.20361328-7.73876953-55.45019531-23.22290039-75.7265625-5.29980469-6.61816406-22.41210938-22.75488281-51.33691406-48.41015625-11.41040039-9.51855469-19.96655273-20.27636719-25.66845703-32.2800293-6.52587891-11.99707031-9.78222656-25.65527344-9.78222657-40.96142578V278.53125h-65.390625v10.546875c0 24.00732422 4.07373047 43.6574707 12.22119141 58.97021484 7.73876953 16.55200195 30.76391602 42.20727539 69.06225586 76.96582032l10.38867187 11.7993164c11.40380859 14.89746094 17.11230469 29.99267578 17.11230469 45.30541992 0 21.10693359-5.90625 38.06762695-17.7253418 50.89526368-12.22119141 12.41894531-29.53125 18.62182617-51.94335937 18.62182617-27.71191406 0-47.671875-8.89892578-59.8996582-26.69018555-10.99511719-14.89746094-16.49926758-35.99780273-16.49926758-63.30761719H380.1640625c0 45.10107422 12.83422852 80.68359375 38.50268555 106.76074219C444.33520508 594.87158203 479.78588867 608.12109375 525.01220703 608.12109375z m-13.2824707-382.32421875c11.83886719 0 21.34423828-3.69140625 28.52270508-11.06103516 7.53442383-7.00708008 11.29833984-16.41357422 11.29833984-28.21289062 0-11.06103516-3.94848633-20.65209961-11.83886719-28.76660156C531.8215332 150.38671875 522.49414063 146.6953125 511.73632812 146.6953125c-11.12036133 0-20.44775391 3.86938477-27.98217773 11.61474609C476.21313477 166.05541991999996 472.44921875 175.46191406000003 472.44921875 186.52294922c0 11.79931641 3.76391602 21.20581055 11.29833984 28.21289062C490.92602539 222.10546875 500.25341797 225.796875 511.73632812 225.796875z"  horiz-adv-x="1024" />

    
    <glyph glyph-name="nodal" unicode="&#59327;" d="M832 544v-256H320c0-41.8-26.712-77.36-64-90.536V128h325.464c13.176 37.28 48.736 64 90.536 64 53.016 0 96-42.984 96-96s-42.984-96-96-96c-41.8 0-77.36 26.712-90.536 64H192V197.46400000000006C154.72 210.64 128 246.20000000000005 128 288c0 53.016 42.984 96 96 96a95.76 95.76 0 0 0 71.56-32H768V544h64zM672 128a32 32 0 1 1 0-64 32 32 0 0 1 0 64zM224 320a32 32 0 1 1 0-64 32 32 0 0 1 0 64z m576 448c53.016 0 96-42.984 96-96s-42.984-96-96-96c-41.8 0-77.36 26.712-90.536 64H256v-192h-64V704h517.464c13.176 37.28 48.736 64 90.536 64z m0-64a32 32 0 1 1 0-64 32 32 0 0 1 0 64z"  horiz-adv-x="1024" />

    
    <glyph glyph-name="com-map" unicode="&#58908;" d="M289.32 424c14.24-23.28 29.952-46.608 46.256-69.336h-73.312l-69.392-277.328h644.448l-75.176 277.328h-73.72c16.304 22.72 32.024 46.064 46.256 69.336h80.56L928 8H104l104.08 416h81.24zM512 200s224 234.112 224 358.6C736 683.08 635.712 784 512 784S288 683.08 288 558.6C288 434.112 512 200 512 200z m-60.944 171.2c-20.92 27.68-39.36 54.344-54.608 79.336C367.416 498.096 352 536.8 352 558.6 352 647.8240000000001 423.728 720 512 720s160-72.176 160-161.4c0-21.8-15.416-60.504-44.448-108.064-15.248-24.992-33.688-51.656-54.608-79.328A1561.448 1561.448 0 0 0 512 295.81600000000003a1561.448 1561.448 0 0 0-60.944 75.392z"  horiz-adv-x="1024" />

    
    <glyph glyph-name="com-regular_pie" unicode="&#58909;" d="M855.136 535.1600000000001a373.928 373.928 0 0 1-78.072 113.904 373.12 373.12 0 0 1-194.544 103.136v-332.352l272.616 115.312z m20.648-60.496L512 320V758.856c-95.936 0-191.872-36.6-265.064-109.792-146.392-146.392-146.392-383.736 0-530.128 146.392-146.392 383.736-146.392 530.128 0 96.44 96.44 129.344 232.352 98.72 355.728z m-680.568-407.448c-174.96 174.96-174.96 458.616 0 633.568 174.96 174.96 458.616 174.96 633.568 0 174.96-174.96 174.96-458.616 0-633.568-174.96-174.96-458.616-174.96-633.568 0z"  horiz-adv-x="1024" />

    
    <glyph glyph-name="com-more" unicode="&#58911;" d="M256 448h128v-128H256V448z m192 0h128v-128H448V448z m192 0h128v-128H640V448zM128 768h768v-768H128V768z m64-64v-640h640V704H192z"  horiz-adv-x="1024" />

    
    <glyph glyph-name="cuowu" unicode="&#58912;" d="M466.744 384L313.376 537.376l45.248 45.248L512 429.256l153.376 153.368 45.248-45.248L557.256 384l153.368-153.376-45.248-45.248L512 338.744 358.624 185.376l-45.248 45.248L466.744 384zM512-64C264.576-64 64 136.576 64 384S264.576 832 512 832s448-200.576 448-448-200.576-448-448-448z m0 64c212.08 0 384 171.92 384 384S724.08 768 512 768 128 596.08 128 384s171.92-384 384-384z"  horiz-adv-x="1024" />

    
    <glyph glyph-name="help" unicode="&#58913;" d="M512-64C264.576-64 64 136.57600000000002 64 384S264.576 832 512 832s448-200.576 448-448-200.576-448-448-448z m0 64c212.08 0 384 171.92 384 384S724.08 768 512 768 128 596.0799999999999 128 384s171.92-384 384-384z m15.792 656c47.96 0 86.528-13.312 115.704-39.92C673.168 589.952 688 554.048 688 508.344c0-36.656-9.392-67.296-28.184-91.904-6.432-8.032-27.2-27.616-62.304-58.752-13.848-11.552-24.232-24.608-31.152-39.176-7.92-14.56-11.872-31.136-11.872-49.712V256h-79.36v12.8c0 29.136 4.944 52.984 14.832 71.568 9.392 20.088 37.336 51.224 83.816 93.408l12.608 14.32c13.84 18.08 20.768 36.4 20.768 54.984 0 25.616-7.168 46.2-21.512 61.768-14.832 15.072-35.84 22.6-63.04 22.6-33.632 0-57.856-10.8-72.696-32.392-13.344-18.08-20.024-43.688-20.024-76.832H352c0 54.736 15.576 97.92 46.728 129.568C429.88 639.9200000000001 472.904 656 527.792 656z m-16.12-464c14.368 0 25.904-4.48 34.616-13.424 9.144-8.504 13.712-19.92 13.712-34.24 0-13.424-4.792-25.064-14.368-34.912C536.056 100.48000000000002 524.736 96 511.68 96c-13.496 0-24.816 4.696-33.96 14.096C468.568 119.49599999999998 464 130.91200000000003 464 144.336c0 14.32 4.568 25.736 13.712 34.24C486.424 187.51999999999998 497.744 192 511.68 192z"  horiz-adv-x="1024" />

    
    <glyph glyph-name="gongzuokongjian-jiuban" unicode="&#58915;" d="M517.36 140.568L332.936 460h374.128L522.64 140.568H768v-73.136H256V140.56h261.36zM128 672v-416H64V736h896v-480h-64V672H128z"  horiz-adv-x="1024" />

    
    <glyph glyph-name="publish" unicode="&#58917;" d="M64.024 332.46400000000006l301.624-117.928 39.648 51.984-210.752 69.96 578.16 303.632L463.44 244.53599999999994a22.84 22.84 0 0 1-1.96-2.848l-35.736-46.936V0h58.744V175.36l320.76-98.624c2.2-0.688 32.456 229.728 90.76 691.264C338.328 478.68 61.008 333.496 64.024 332.46400000000006zM528 226.336L832 616 751.664 152 528 226.336z"  horiz-adv-x="1024" />

    
    <glyph glyph-name="viewport" unicode="&#58918;" d="M501.392 650.672l-3.2-3.656h6.416zM831.328 512V703.264H192.16v-638.096l191.84-0.128V512h447.328z m0-65.16h-382.16v-381.84l382.16-0.264V446.84zM896 0H128V768h768v-768z"  horiz-adv-x="1024" />

    
    <glyph glyph-name="monitor" unicode="&#58919;" d="M95.064 767.384h832v-640h-832v640z m64-64v-512h704v512h-704z m63.064-640.616h576v-64h-576v64zM480 640h64v-256h-64zM480 320h64v-64h-64z"  horiz-adv-x="1024" />

    
    <glyph glyph-name="interact" unicode="&#58920;" d="M896 304.28l-64 19.824V591.904L512 768 192 591.904v-351.808L512 64l46.544 25.616 19.096-54.08L512 0 128 207.904V624.096L512 832l384-207.904v-319.816zM512 392l416-152.448L720 180 669.792-32 512 392z"  horiz-adv-x="1024" />

    
    <glyph glyph-name="com-interact" unicode="&#59312;" d="M896 304.28l-64 19.824V591.904L512 768 192 591.904v-351.808L512 64l46.544 25.616 19.096-54.08L512 0 128 207.904V624.096L512 832l384-207.904v-319.816zM512 392l416-152.448L720 180 669.792-32 512 392z"  horiz-adv-x="1024" />

    
    <glyph glyph-name="jiedian" unicode="&#58921;" d="M832 544v-256H320c0-41.8-26.712-77.36-64-90.536V128h325.464c13.176 37.28 48.736 64 90.536 64 53.016 0 96-42.984 96-96s-42.984-96-96-96c-41.8 0-77.36 26.712-90.536 64H192V197.46400000000006C154.72 210.64 128 246.20000000000005 128 288c0 53.016 42.984 96 96 96a95.76 95.76 0 0 0 71.56-32H768V544h64zM672 128a32 32 0 1 1 0-64 32 32 0 0 1 0 64zM224 320a32 32 0 1 1 0-64 32 32 0 0 1 0 64z m576 448c53.016 0 96-42.984 96-96s-42.984-96-96-96c-41.8 0-77.36 26.712-90.536 64H256v-192h-64V704h517.464c13.176 37.28 48.736 64 90.536 64z m0-64a32 32 0 1 1 0-64 32 32 0 0 1 0 64z"  horiz-adv-x="1024" />

    
    <glyph glyph-name="right" unicode="&#59309;" d="M400 832l-112-112.00000001 112-335.99999999-112-335.99999999L400-64l336.00000001 448z"  horiz-adv-x="1024" />

    
    <glyph glyph-name="com-network" unicode="&#58922;" d="M128 192h192v-192H128V192z m576 0h192v-192H704V192z m0 576h192v-192H704V768z m-576 0h192v-192H128V768z m704-528h-64V528h64v-288z m-176-176H368v64h288v-64z m0 640v-64H368v64h288zM192 240V528h64v-288h-64z"  horiz-adv-x="1024" />

    
    <glyph glyph-name="workspace-tmp" unicode="&#58923;" d="M747.544 632L840 577.784V444.16L682.28 352V481.736L584 539.056 747.544 632zM680 670.4639999999999L518.912 576 352 674.304 512.704 768 680 670.4639999999999zM343.616 104L184 198.42399999999998V376l160-94.032L343.616 104zM408 61.27200000000005V240l104.392-61.272L616 240v-178.344L510.832 0 408 60.879999999999995v0.392z m48 481.472l-110.744-60.408V360L184 453.84V580.736L287.36 640 456 542.744zM525.232 504L624 446.24v-129.784L520.192 256 416 317.616V442.768L523.296 504h1.936zM840 368v-173.336L688 104V277.336L840 368z"  horiz-adv-x="1024" />

    
    <glyph glyph-name="tool" unicode="&#58924;" d="M192 576V768h640v-192h64v-512H128V576h64z m64 0h512V704H256v-128z m-64-64v-384h640V512H192z m128-160h384v-64H320v64z"  horiz-adv-x="1024" />

    
    <glyph glyph-name="com-regular_scatterplot" unicode="&#58925;" d="M192 64h704v-64H128V768h64v-704z m174.864 401.136c62.48 62.48 163.792 62.48 226.272 0 62.48-62.48 62.48-163.792 0-226.272-62.48-62.48-163.792-62.48-226.272 0-62.48 62.48-62.48 163.792 0 226.272z m99.88 252.12a64 64 0 1 0 90.512-90.512 64 64 0 0 0-90.512 90.512z m265.376-393.376c37.488 37.496 98.272 37.496 135.76 0 37.496-37.488 37.496-98.272 0-135.76-37.488-37.496-98.272-37.496-135.76 0-37.496 37.488-37.496 98.272 0 135.76z"  horiz-adv-x="1024" />

    
    <glyph glyph-name="copy-screen" unicode="&#58926;" d="M480.936 418.376V592.72h64v-174.344H729.2v-64H544.936v-159.504h-64V354.376H318.72v64h162.216zM320 768v-64H192v-128h-64V768h192z m384 0h192v-192h-64V704H704v64z m192-576v-192H704v64h128V192h64z m-576-192H128V192h64v-128h128v-64zM128 512h64v-256h-64V512z m256 256h256v-64H384v64z m0-704h256v-64H384v64z m448 448h64v-256h-64V512z"  horiz-adv-x="1024" />

    
    <glyph glyph-name="list" unicode="&#58927;" d="M501.36 650.688l-3.2-3.656h6.416zM192 287.96000000000004l640-0.4V472H192v-184.04zM192 224v-159.496l640-0.504V224H192z m0 311.96l640-0.4V696H192v-160.04zM896 0H128V768h768v-768z"  horiz-adv-x="1024" />

    
    <glyph glyph-name="kegundong" unicode="&#58928;" d="M288 381.728L514.272 608 740.56 381.728 514.272 155.44 288 381.728z m88 2.504l135.76-135.76 135.768 135.76L511.768 520 376 384.24z m-231.616 3.304L228.64 303.28l-40.184-40.184L64 387.552 188.448 512l40.2-40.2-84.264-84.264z m364.048-372.056l-84.24 84.256L384 59.552l124.448-124.456 124.456 124.456-40.2 40.2-84.272-84.272z m0.016 736.12L592.704 667.36l40.2 40.2L508.448 832 384 707.552l40.2-40.2L508.448 751.6z m372.056-364.048L796.24 471.8 836.448 512l124.456-124.448-124.456-124.456-40.2 40.2 84.256 84.256z"  horiz-adv-x="1024" />

    
    <glyph glyph-name="data-config" unicode="&#58929;" d="M256 448h512v-64H256v64z m616-320h24V704H736v64h224v-704H736v64h136z m-720 0h136v-64H64V768h224v-64H128v-576h24z"  horiz-adv-x="1024" />

    
    <glyph glyph-name="move-prev" unicode="&#58930;" d="M528 650.304V64h368v-64H128v64h336V639.456l-142.048-146.64-45.968 44.536L499.424 768 734.4 537.44 689.6 491.76 528 650.304zM576 256v64h320v-64H576z m-160 0H128v64h288v-64z"  horiz-adv-x="1024" />

    
    <glyph glyph-name="transfer-screen" unicode="&#58931;" d="M376.36 576L514 365.576l133.152 210.048L704 542.56 542.864 288.376 486.264 288 320 542.184 376.36 576zM64 768h896v-640H64V768z m64-64v-512h768V704H128z m96-640h576v-64H224v64z"  horiz-adv-x="1024" />

    
    <glyph glyph-name="refresh" unicode="&#58932;" d="M819.344 473.408L665.136 344.01599999999996 624 393.048l169.88 142.544v0.016l49.888 41.872A382.224 382.224 0 0 0 896 384c0-212.08-171.92-384-384-384a382.472 382.472 0 0 0-248.104 90.904l49.888 41.864A318.64 318.64 0 0 1 512 64c176.728 0 320 143.272 320 320 0 31.04-4.416 61.04-12.656 89.408z m-613.84-181.672L358.944 416l40.28-49.736L218.8 220.15200000000004l-37.496-31.456A382.216 382.216 0 0 0 128 384c0 212.08 171.92 384 384 384a382.488 382.488 0 0 0 249.72-92.28l-49.84-41.816A318.648 318.648 0 0 1 512 704c-176.728 0-320-143.272-320-320 0-32.08 4.72-63.04 13.504-92.264z"  horiz-adv-x="1024" />

    
    <glyph glyph-name="edit" unicode="&#58933;" d="M128 0v64h768v-64H128z m0 352.4L669.752 832 896 594.672 371.264 128H129.936L128 352.4zM193.384 192h153.536l457.04 406.464L666 743.2 192.24 323.79999999999995 193.384 192z"  horiz-adv-x="1024" />

    
    <glyph glyph-name="logo" unicode="&#58934;" d="M192 704v-192h192V704H192z m448 0v-192h192V704H640z m0-448v-192h192V256H640zM128 768h320v-320H128V768z m448 0h320v-320H576V768z m0-448h320v-320H576V320z m-448 0h320v-320H128V320z m64-64v-192h192V256H192z"  horiz-adv-x="1024" />

    
    <glyph glyph-name="favorite" unicode="&#58935;" d="M512 79.072l-268.032-71.984-14.36 277.16L78.32 516.912l259.152 99.304L512 832l174.528-215.784 259.152-99.304L794.4 284.24800000000005l-14.368-277.16L512 79.072z m0 66.264l208.208-55.92 11.16 215.304 117.52 180.744-201.312 77.144L512 730.232 376.424 562.608l-201.32-77.144 117.52-180.744 11.168-215.296L512 145.34400000000005z"  horiz-adv-x="1024" />

    
    <glyph glyph-name="sousuo" unicode="&#58936;" d="M673.624 271.976L896 46.32 846.12 0 625.68 223.728C570.6 178.904 500.376 152 423.976 152 247.544 152 104 295.512 104 471.92 104 648.448 247.544 792 423.976 792 600.456 792 744 648.44 744 471.92c0-75.576-26.36-145.128-70.376-199.944zM168.016 471.92c0-141.04 114.864-255.936 255.96-255.936S679.984 330.88 679.984 471.928C679.984 613.072 565.12 728 424.024 728 282.88 728 168.016 613.072 168.016 471.92z"  horiz-adv-x="1024" />

    
    <glyph glyph-name="com-material" unicode="&#58937;" d="M443.68 640C483.92 716.1279999999999 563.904 768 656 768c132.552 0 240-107.448 240-240 0-104.496-66.784-193.4-160-226.344V0H128V640h315.68z m76.552 0H736v-268.808C792.984 400.32 832 459.6 832 528c0 97.2-78.8 176-176 176-54.656 0-103.488-24.912-135.768-64zM420.8 576H192v-512h480V288.528c-5.288-0.352-10.624-0.528-16-0.528-132.552 0-240 107.448-240 240 0 16.44 1.656 32.488 4.8 48z m65.824 0A176.128 176.128 0 0 1 480 528c0-97.2 78.8-176 176-176 5.392 0 10.728 0.24 16 0.72V576H486.624z"  horiz-adv-x="1024" />

    
    <glyph glyph-name="upload" unicode="&#58938;" d="M544 64h352v-64H128v64h352V641.04L180 332l-45.968 44.528 377.6 389.088 385.624-388.36L852 332 544 642.488V64z"  horiz-adv-x="1024" />

    
    <glyph glyph-name="gaodupuman" unicode="&#58939;" d="M704 575.864v-384.208H320V575.864h384z m-64-64.032H384V255.68h256V511.84zM504.168 744.264L412.264 652.304l-43.84 43.856L504.184 832l135.768-135.84-43.856-43.872-91.92 91.976z m0.016-720.136l91.92 91.96 43.848-43.872-135.76-135.84-135.768 135.84 43.856 43.872 91.904-91.96z"  horiz-adv-x="1024" />

    
    <glyph glyph-name="move" unicode="&#58940;" d="M482 352h-192v64h192V608h64v-192h192v-64h-192v-192h-64V352zM190.272 505.728l42.744-42.744L152 381.96000000000004l86.984-86.976-45.256-45.256L64 379.44000000000005l126.272 126.28z m192 192L516.56 832l129.72-129.728-45.256-45.256L514.04 744 425.016 654.984l-42.744 42.744z m456-187.456l130.824-130.824-134.272-134.272-47.76 47.76 89.016 89.024-83.064 83.056 45.256 45.256z m-195.448-457.096l-126.272-126.272-130.824 130.824 45.256 45.256 83.056-83.064 81.016 81.024 47.76-47.76z"  horiz-adv-x="1024" />

    
    <glyph glyph-name="error" unicode="&#58941;" d="M512-64C264.576-64 64 136.57600000000002 64 384S264.576 832 512 832s448-200.576 448-448-200.576-448-448-448z m0 64c212.08 0 384 171.92 384 384S724.08 768 512 768 128 596.0799999999999 128 384s171.92-384 384-384z m-32 640h80v-384H480V640z m0-528V192h80v-80H480z"  horiz-adv-x="1024" />

    
    <glyph glyph-name="completed" unicode="&#58942;" d="M344 408l-48-46.352L462.168 184 744 512l-48.88 40L464 280 344 408z m168-472C264.576-64 64 136.57600000000002 64 384S264.576 832 512 832s448-200.576 448-448-200.576-448-448-448z m0 64c212.08 0 384 171.92 384 384S724.08 768 512 768 128 596.0799999999999 128 384s171.92-384 384-384z"  horiz-adv-x="1024" />

    
    <glyph glyph-name="hide" unicode="&#58943;" d="M713.984 636.8l-39.704-40.256C619.144 631.024 565.016 648 512 648c-120.048 0-245.776-87.04-376-267.2 58.296-67.136 115.84-118.68 172.608-155.008l-44.344-44.96C197.504 226.53599999999994 130.752 290.72799999999995 64 373.39200000000005 213.336 593.8 362.664 704 512 704c67.328 0 134.656-22.4 201.984-67.2z m93.824-76.936c50.728-49.44 101.464-111.592 152.192-186.464C810.664 188.46400000000006 661.336 96 512 96c-45.448 0-90.904 8.56-136.352 25.696l49.704 50.4C454.44 164.01599999999996 483.32 160 512 160c121.616 0 246.944 72.168 376 220.8-40.032 55.384-79.64 101.968-118.792 139.928l38.6 39.136zM501.392 249.20000000000005l161.152 163.384c0.96-6.72 1.456-13.592 1.456-20.576 0-79.528-64.472-144-144-144-6.304 0-12.512 0.4-18.608 1.192z m-103.76 66.864A143.328 143.328 0 0 0 376 392c0 79.528 64.472 144 144 144 27.16 0 52.568-7.52 74.248-20.592l-196.616-199.36zM830.576 712l42.424-43.016L268.424 56l-42.424 43.016L830.576 712z"  horiz-adv-x="1024" />

    
    <glyph glyph-name="layer" unicode="&#58944;" d="M656.768 419.152l-60.448-43.08-81.6 51.904-85.28-55.384-59.496 41.728 145.696 94.616 141.128-89.784z m129.544-82.4l147.6-93.912-424.688-302.68-417.976 293.176 147.456 95.76 59.488-41.728-85.224-55.352 297.2-208.456 301.968 215.216-86.272 54.888 60.448 43.08zM509.92 766.432l429.92-276.36-429.92-304-429.92 304 429.92 276.36z m0-82.6L204.24 487.336l305.68-216.16 305.688 216.16-305.68 196.504z"  horiz-adv-x="1024" />

    
    <glyph glyph-name="lock" unicode="&#58946;" d="M320 512V768h384v-256h192v-512H128V512h192z m64 0h256V704H384v-192z m-64-64H192v-384h640V448H320z m160-96h64v-192h-64V352z"  horiz-adv-x="1024" />

    
    <glyph glyph-name="yulan" unicode="&#58947;" d="M64 384L512 768l448-384-448-384L64 384z m98.344 0L512 84.296 861.656 384 512 683.704 162.344 384zM512 384m-64 0a64 64 0 1 1 128 0 64 64 0 1 1-128 0Z"  horiz-adv-x="1024" />

    
    <glyph glyph-name="delete" unicode="&#58949;" d="M160 576h704l-132.568-576H281.792L160 576z m169.456-512H685.92L792 512H232l97.456-448zM448 704v64h128v-64h320v-64H128v64h320z"  horiz-adv-x="1024" />

    
    <glyph glyph-name="show" unicode="&#58950;" d="M64 399.496C213.336 602.512 362.664 704 512 704s298.664-101.504 448-304.504C810.664 229.17600000000004 661.336 144 512 144S213.336 229.168 64 399.504zM512 200c121.376 0 246.448 66.256 375.24 202.704C757.288 568.096 631.808 648 512 648c-119.808 0-245.28-79.904-375.24-245.296C265.56 266.256 390.624 200 512 200z m4 88C443.096 288 384 347.096 384 420S443.096 552 516 552 648 492.904 648 420 588.904 288 516 288z"  horiz-adv-x="1024" />

    
    <glyph glyph-name="align-left" unicode="&#58951;" d="M256 768v-768h-64V768h64z m64-64h448v-192H320V704z m512-576H384V256h448v-128zM320 320v-256h576V320H320z"  horiz-adv-x="1024" />

    
    <glyph glyph-name="kuandupuman" unicode="&#58952;" d="M320.136 576h384.208v-384H320.136V576z m64.032-64v-256H640.32V512H384.16zM151.736 376.168l91.96-91.904-43.856-43.84L64 376.184l135.84 135.768 43.872-43.856-91.976-91.92z m720.136 0.016l-91.96 91.92 43.872 43.848 135.84-135.76-135.84-135.768-43.872 43.856 91.96 91.904z"  horiz-adv-x="1024" />

    
    <glyph glyph-name="com-regular" unicode="&#58953;" d="M128 768h128v-768H128V768z m320-192h128v-576H448V576z m312-192h128v-384H760V384z"  horiz-adv-x="1024" />

    
    <glyph glyph-name="move-next" unicode="&#58954;" d="M528 117.69600000000003V704h368v64H128v-64h336v-575.456l-142.048 146.64-45.968-44.536L499.424 0 734.4 230.55999999999995 689.6 276.24 528 117.69600000000003zM576 512v-64h320v64H576z m-160 0H128v-64h288v64z"  horiz-adv-x="1024" />

    
    <glyph glyph-name="zhibiao" unicode="&#58955;" d="M896 336V448H320v-112h576z m0 176V640H320v-128h576z m-640-64H128v-112h128V448z m0 64V640H128v-128h128z m64-384h576V272H320v-144z m-64 144H128v-144h128V272zM64 704h896v-640H64V704z"  horiz-adv-x="1024" />

    
    <glyph glyph-name="align-right" unicode="&#58956;" d="M768 768v-768h64V768h-64z m-64-64H256v-192h448V704zM192 128h448V256H192v-128z m512 192v-256H128V320h576z"  horiz-adv-x="1024" />

    
    <glyph glyph-name="zhongxin" unicode="&#58957;" d="M320 576h384v-384H320V576z m64-64v-256h256V512H384zM195.16 700.816V560H128V768h208v-67.184H195.16z m0-633.632V208H128v-208h208v67.184H195.16z m633.656 633.632V560H896V768H688v-67.184h140.816z m0-633.632V208H896v-208H688v67.184h140.816z"  horiz-adv-x="1024" />

    
    <glyph glyph-name="com-custom" unicode="&#58958;" d="M511.784 264.12c-146.144 0-264.616 112.8-264.616 251.936C247.168 655.2 365.64 768 511.784 768c146.136 0 264.608-112.8 264.608-251.944S657.92 264.12 511.784 264.12z m0 62.984c109.6 0 198.456 84.6 198.456 188.96 0 104.352-88.856 188.952-198.456 188.952-109.608 0-198.464-84.6-198.464-188.96 0-104.352 88.856-188.96 198.464-188.96zM864 29.104000000000042L805.328 0c-56.584 103.408-168.88 169.64-293.544 169.64-124.4 0-236.48-65.928-293.192-168.976L160 29.903999999999996c68.024 123.6 202.544 202.72 351.784 202.72 149.576 0 284.344-79.488 352.216-203.52z"  horiz-adv-x="1024" />

    
    <glyph glyph-name="to-bottom" unicode="&#58959;" d="M544 182.11199999999997V640h352V768H128v-128h352v-464.96L332.92 319.03200000000004 288 277.75199999999995 506.36 64 736 277.664 692.2 320 544 182.11199999999997z"  horiz-adv-x="1024" />

    
    <glyph glyph-name="setting" unicode="&#58960;" d="M448 128v64h128v-64h320v-64H576v-64H448v64H128v64h320z m192 320v64h128v-64h128v-64H768v-64H640v64H128v64h512zM256 704v64h128v-64h512v-64H384v-64H256v64H128v64h128z"  horiz-adv-x="1024" />

    
    <glyph glyph-name="bottom" unicode="&#58961;" d="M960 496l-112 112-336-112-336 112L64 496l448-336z"  horiz-adv-x="1024" />

    
    <glyph glyph-name="com-media" unicode="&#58963;" d="M128 768h768v-768H128V768z m64-64v-640h640V704H192z m224-128l256-192-256-192V576z"  horiz-adv-x="1024" />

    
    <glyph glyph-name="right-panel" unicode="&#58964;" d="M576 698.184H197.816v-628.368H576V698.184z m64 0v-628.368h186.184V698.184H640zM128 768h768v-768H128V768z"  horiz-adv-x="1024" />

    
    <glyph glyph-name="to-top" unicode="&#58965;" d="M544 649.888V192h352v-128H128V192h352V656.96L332.92 512.9680000000001 288 554.248 506.36 768 736 554.336 692.2 512 544 649.888z"  horiz-adv-x="1024" />

    
    <glyph glyph-name="com-regular_line" unicode="&#58966;" d="M244.992 64H896v-64H128V768h64v-668.08l208.432 292.552 205.792-98.408 197.568 369.04 56.416-30.208-226.432-422.96-212.432 101.6L244.992 64z"  horiz-adv-x="1024" />

    
    <glyph glyph-name="component-list" unicode="&#58967;" d="M488.472 120.39200000000005V378.06399999999996l-224.92 125.92a25.96 25.96 0 0 0-14.4 22.704 25.92 25.92 0 0 0 13.576 23.184 26.752 26.752 0 0 0 27.168-0.912L512 421.144 755.28 551.6c12.992 7.224 29.464 3.016 37.256-9.52 3.584-6 4.544-13.184 2.664-19.896a25.792 25.792 0 0 0-12.672-15.728L541.2 378.06399999999996v-257.84a25.92 25.92 0 0 0-13.248-22.48 26.752 26.752 0 0 0-26.4 0.048 25.92 25.92 0 0 0-13.144 22.544l0.056 0.056zM512 824l367.2-212v-424L512-24 144.8 188v424L512 824z m0-73.904l-303.2-175.04v-350.104L512 49.903999999999996l303.2 175.04V575.056L512 750.096z"  horiz-adv-x="1024" />

    
    <glyph glyph-name="left" unicode="&#59316;" d="M624-64l112 112.00000001-112 335.99999999 112 335.99999999L624 832l-336.00000001-448z"  horiz-adv-x="1024" />

    


  </font>
</defs>
</svg>
