<svg version="1.1" id="_x39_" xmlns="http://www.w3.org/2000/svg" x="0" y="0" viewBox="0 0 31.7 720" xml:space="preserve"><style>.st0{fill:#fff}.st1{fill:#f1f1f1}.st2{fill:#161616}.st3{font-family:&apos;Arial&apos;}.st4{font-size:43.8px}</style><path class="st0" d="M31.7 574v19.7c0 2.3-1.9 4.1-4.1 4.1H4.1c-2.3 0-4.1-1.9-4.1-4.1V574h31.7z"/><path class="st1" d="M0 574v-20c0-2.3 1.9-4.1 4.1-4.1h23.4c2.3 0 4.1 1.9 4.1 4.1v20H0z"/><text transform="matrix(1.1649 0 0 1 1.729 589.303)" class="st2 st3 st4">9</text><path class="st0" d="M31.7 635v19.7c0 2.3-1.9 4.1-4.1 4.1H4.1c-2.3 0-4.1-1.9-4.1-4.1V635h31.7z"/><path class="st1" d="M0 635v-20c0-2.3 1.9-4.1 4.1-4.1h23.4c2.3 0 4.1 1.9 4.1 4.1v20H0z"/><text transform="matrix(1.1649 0 0 1 8.763 650.39)" class="st2 st3 st4">.</text><path class="st0" d="M31.7 696.1v19.7c0 2.3-1.9 4.1-4.1 4.1H4.1c-2.3 0-4.1-1.9-4.1-4.1v-19.7h31.7z"/><path class="st1" d="M0 696.1v-20c0-2.3 1.9-4.1 4.1-4.1h23.4c2.3 0 4.1 1.9 4.1 4.1v20H0z"/><text transform="matrix(1.1649 0 0 1 8.763 711.475)" class="st2 st3 st4">,</text><path class="st0" d="M31.7 512.9v19.7c0 2.3-1.9 4.1-4.1 4.1H4.1c-2.3 0-4.1-1.9-4.1-4.1v-19.7h31.7z"/><path class="st1" d="M0 512.9v-20c0-2.3 1.9-4.1 4.1-4.1h23.4c2.3 0 4.1 1.9 4.1 4.1v20H0z"/><text transform="matrix(1.1649 0 0 1 1.729 528.218)" class="st2 st3 st4">8</text><g><path class="st0" d="M31.7 451.8v19.7c0 2.3-1.9 4.1-4.1 4.1H4.1c-2.3 0-4.1-1.9-4.1-4.1v-19.7h31.7z"/><path class="st1" d="M0 451.8v-20c0-2.3 1.9-4.1 4.1-4.1h23.4c2.3 0 4.1 1.9 4.1 4.1v20H0z"/><text transform="matrix(1.1649 0 0 1 1.729 467.132)" class="st2 st3 st4">7</text></g><g><path class="st0" d="M31.7 390.7v19.7c0 2.3-1.9 4.1-4.1 4.1H4.1c-2.3 0-4.1-1.9-4.1-4.1v-19.7h31.7z"/><path class="st1" d="M0 390.7v-20c0-2.3 1.9-4.1 4.1-4.1h23.4c2.3 0 4.1 1.9 4.1 4.1v20H0z"/><text transform="matrix(1.1649 0 0 1 1.729 406.046)" class="st2 st3 st4">6</text></g><g><path class="st0" d="M31.7 329.6v19.7c0 2.3-1.9 4.1-4.1 4.1H4.1c-2.3 0-4.1-1.9-4.1-4.1v-19.7h31.7z"/><path class="st1" d="M0 329.6v-20c0-2.3 1.9-4.1 4.1-4.1h23.4c2.3 0 4.1 1.9 4.1 4.1v20H0z"/><text transform="matrix(1.1649 0 0 1 1.729 344.96)" class="st2 st3 st4">5</text></g><g><path class="st0" d="M31.7 268.5v19.7c0 2.3-1.9 4.1-4.1 4.1H4.1c-2.3 0-4.1-1.9-4.1-4.1v-19.7h31.7z"/><path class="st1" d="M0 268.5v-20c0-2.3 1.9-4.1 4.1-4.1h23.4c2.3 0 4.1 1.9 4.1 4.1v20H0z"/><text transform="matrix(1.1649 0 0 1 1.729 283.875)" class="st2 st3 st4">4</text></g><g><path class="st0" d="M31.7 207.4v19.7c0 2.3-1.9 4.1-4.1 4.1H4.1c-2.3 0-4.1-1.9-4.1-4.1v-19.7h31.7z"/><path class="st1" d="M0 207.4v-20c0-2.3 1.9-4.1 4.1-4.1h23.4c2.3 0 4.1 1.9 4.1 4.1v20H0z"/><text transform="matrix(1.1649 0 0 1 1.729 222.79)" class="st2 st3 st4">3</text></g><g><path class="st0" d="M31.7 146.4v19.7c0 2.3-1.9 4.1-4.1 4.1H4.1c-2.3 0-4.1-1.9-4.1-4.1v-19.7h31.7z"/><path class="st1" d="M0 146.4v-20c0-2.3 1.9-4.1 4.1-4.1h23.4c2.3 0 4.1 1.9 4.1 4.1v20H0z"/><text transform="matrix(1.1649 0 0 1 1.729 161.703)" class="st2 st3 st4">2</text></g><g><path class="st0" d="M31.7 85.3V105c0 2.3-1.9 4.1-4.1 4.1H4.1c-2.3 0-4.1-1.9-4.1-4.1V85.3h31.7z"/><path class="st1" d="M0 85.3v-20c0-2.3 1.9-4.1 4.1-4.1h23.4c2.3 0 4.1 1.9 4.1 4.1v20H0z"/><text transform="matrix(1.1649 0 0 1 1.729 100.618)" class="st2 st3 st4">1</text></g><g><path class="st0" d="M31.7 24.2v19.7c0 2.3-1.9 4.1-4.1 4.1H4.1C1.8 48 0 46.1 0 43.9V24.2h31.7z"/><path class="st1" d="M0 24.2v-20C0 1.9 1.9.1 4.1.1h23.4c2.3 0 4.1 1.9 4.1 4.1v20H0z"/><text transform="matrix(1.1649 0 0 1 1.729 39.533)" class="st2 st3 st4">0</text></g></svg>