<svg xmlns="http://www.w3.org/2000/svg" viewBox="0 0 35.36 382"><defs><clipPath id="a"><path d="M31.11 376.45H4.25A4.25 4.25 0 010 372.19V367a4.25 4.25 0 014.25-4.25h26.86a4.25 4.25 0 014.25 4.25v5.19a4.25 4.25 0 01-4.25 4.26zm4.25-23.34v-5.19a4.25 4.25 0 00-4.25-4.25H4.25A4.25 4.25 0 000 347.91v5.19a4.25 4.25 0 004.25 4.25h26.86a4.25 4.25 0 004.25-4.25zm0-19.09v-5.19a4.25 4.25 0 00-4.25-4.25H4.25A4.25 4.25 0 000 328.82V334a4.25 4.25 0 004.25 4.25h26.86a4.25 4.25 0 004.25-4.25zm0-19.09v-5.19a4.25 4.25 0 00-4.25-4.25H4.25A4.25 4.25 0 000 309.73v5.19a4.25 4.25 0 004.25 4.25h26.86a4.25 4.25 0 004.25-4.25zm0-19.09v-5.19a4.25 4.25 0 00-4.25-4.25H4.25A4.25 4.25 0 000 290.63v5.19a4.25 4.25 0 004.25 4.25h26.86a4.25 4.25 0 004.25-4.24zm0-19.09v-5.19a4.25 4.25 0 00-4.25-4.25H4.25A4.25 4.25 0 000 271.54v5.19A4.25 4.25 0 004.25 281h26.86a4.25 4.25 0 004.25-4.27zm0-19.09v-5.19a4.25 4.25 0 00-4.25-4.25H4.25A4.25 4.25 0 000 252.45v5.19a4.25 4.25 0 004.25 4.25h26.86a4.25 4.25 0 004.25-4.25zm0-19.09v-5.19a4.25 4.25 0 00-4.25-4.25H4.25A4.25 4.25 0 000 233.36v5.19a4.25 4.25 0 004.25 4.25h26.86a4.25 4.25 0 004.25-4.25zm0-19.09v-5.19a4.25 4.25 0 00-4.25-4.29H4.25A4.25 4.25 0 000 214.27v5.19a4.25 4.25 0 004.25 4.25h26.86a4.25 4.25 0 004.25-4.25zm0-19.09v-5.19a4.25 4.25 0 00-4.25-4.25H4.25A4.25 4.25 0 000 195.17v5.19a4.25 4.25 0 004.25 4.25h26.86a4.25 4.25 0 004.25-4.24zm0-19.09v-5.19a4.25 4.25 0 00-4.25-4.25H4.25A4.25 4.25 0 000 176.08v5.19a4.25 4.25 0 004.25 4.25h26.86a4.25 4.25 0 004.25-4.25zm0-19.09V157a4.25 4.25 0 00-4.25-4.25H4.25A4.25 4.25 0 000 157v5.19a4.25 4.25 0 004.25 4.25h26.86a4.25 4.25 0 004.25-4.26zm0-19.09v-5.22a4.25 4.25 0 00-4.25-4.25H4.25A4.25 4.25 0 000 137.9v5.19a4.25 4.25 0 004.25 4.25h26.86a4.25 4.25 0 004.25-4.25zm0-19.09v-5.23a4.25 4.25 0 00-4.25-4.25H4.25A4.25 4.25 0 000 118.8v5.2a4.25 4.25 0 004.25 4.25h26.86a4.25 4.25 0 004.25-4.25zm0-19.09v-5.23a4.25 4.25 0 00-4.25-4.25H4.25A4.25 4.25 0 000 99.71v5.19a4.25 4.25 0 004.25 4.25h26.86a4.25 4.25 0 004.25-4.25zm0-19.09v-5.23a4.25 4.25 0 00-4.25-4.25H4.25A4.25 4.25 0 000 80.62v5.19a4.25 4.25 0 004.25 4.25h26.86a4.25 4.25 0 004.25-4.25zm0-19.09v-5.23a4.25 4.25 0 00-4.25-4.25H4.25A4.25 4.25 0 000 61.53v5.19A4.25 4.25 0 004.25 71h26.86a4.25 4.25 0 004.25-4.28zm0-19.09v-5.23a4.25 4.25 0 00-4.25-4.25H4.25A4.25 4.25 0 000 42.44v5.19a4.25 4.25 0 004.25 4.25h26.86a4.25 4.25 0 004.25-4.25zm0-19.09v-5.24a4.25 4.25 0 00-4.25-4.25H4.25A4.25 4.25 0 000 23.34v5.19a4.25 4.25 0 004.25 4.25h26.86a4.25 4.25 0 004.25-4.24zm0-19.09V4.25A4.25 4.25 0 0031.11 0H4.25A4.25 4.25 0 000 4.25v5.19a4.25 4.25 0 004.25 4.26h26.86a4.25 4.25 0 004.25-4.26z" fill="none"/></clipPath></defs><g clip-path="url(#a)" fill="#a7bbc3"><path d="M0 0h35.36v13.7H0zM0 19.09h35.36v13.7H0zM0 38.18h35.36v13.7H0zM0 57.28h35.36v13.7H0zM0 76.37h35.36v13.7H0zM0 95.46h35.36v13.7H0zM0 114.55h35.36v13.7H0zM0 133.64h35.36v13.7H0zM0 152.74h35.36v13.7H0zM0 171.83h35.36v13.7H0zm0 19.09h35.36v13.7H0zm0 19.09h35.36v13.7H0zm0 19.1h35.36v13.7H0zm0 19.09h35.36v13.7H0zm0 19.09h35.36v13.7H0zM0 286.38h35.36v13.7H0zm0 19.09h35.36v13.7H0zm0 19.1h35.36v13.7H0zm0 19.09h35.36v13.7H0zm0 19.09h35.36v13.7H0z"/></g></svg>